<?xml version="1.0" standalone="no"?>
<!DOCTYPE svg PUBLIC "-//W3C//DTD SVG 1.1//EN" "http://www.w3.org/Graphics/SVG/1.1/DTD/svg11.dtd" >
<svg xmlns="http://www.w3.org/2000/svg" xmlns:xlink="http://www.w3.org/1999/xlink" version="1.1">
<metadata>
Created by FontForge 20190801 at Wed Feb 22 15:21:31 2017
 By Jimmy Wärting
Typeface (c) Christopher Jackson. 2017. All Rights Reserved
</metadata>
<defs>
<font id="SocialCircles" horiz-adv-x="1448" >
  <font-face 
    font-family="Social Circles"
    font-weight="400"
    font-stretch="normal"
    units-per-em="2048"
    panose-1="2 0 5 0 0 0 0 0 0 0"
    ascent="1638"
    descent="-410"
    x-height="1264"
    cap-height="1414"
    bbox="-55 -20 1483 1437"
    underline-thickness="150"
    underline-position="-292"
    unicode-range="U+0021-00A0"
  />
<missing-glyph horiz-adv-x="1460" 
d="M163 722q0 -231 166 -395t402 -164q235 0 401 164t166 395q0 232 -166 396t-401 164q-236 0 -402 -164t-166 -396zM223 220q-210 208 -210 502q0 295 210 503q210 207 508 207q297 0 507 -207q210 -208 210 -503q0 -294 -210 -502t-507 -208q-298 0 -508 208zM1089 738
q-18 -215 -225 -223q-2 0 -3 1q-8 0 -35 -2q-19 -3 -33 -89q-2 -9 -4 -25q-3 -17 -4 -25q-10 -61 -29 -67h-132q-1 1 -3 83q7 33 18 109q10 70 19 109l-3 -1q1 22 38 25q115 8 138 8q6 0 6 -1q63 10 99 44q44 42 57 65q33 57 33 108v8l2 -2q58 -32 61 -104v-21zM1011 899
q1 0 2 -1l1 -4v-5q0 -51 -36 -114q-14 -24 -59 -68q-35 -34 -105 -47q-1 1 -7 1q-24 0 -145 -8l-21 -8q-7 -39 -18 -106q-12 -82 -18 -115h-76q-82 0 -87 14v13q0 -1 89 553q12 78 34 81h267q182 -10 182 -150q0 -17 -3 -36z" />
    <glyph glyph-name=".notdef" unicode="&#xa0;" horiz-adv-x="1460" 
d="M163 722q0 -231 166 -395t402 -164q235 0 401 164t166 395q0 232 -166 396t-401 164q-236 0 -402 -164t-166 -396zM223 220q-210 208 -210 502q0 295 210 503q210 207 508 207q297 0 507 -207q210 -208 210 -503q0 -294 -210 -502t-507 -208q-298 0 -508 208zM1089 738
q-18 -215 -225 -223q-2 0 -3 1q-8 0 -35 -2q-19 -3 -33 -89q-2 -9 -4 -25q-3 -17 -4 -25q-10 -61 -29 -67h-132q-1 1 -3 83q7 33 18 109q10 70 19 109l-3 -1q1 22 38 25q115 8 138 8q6 0 6 -1q63 10 99 44q44 42 57 65q33 57 33 108v8l2 -2q58 -32 61 -104v-21zM1011 899
q1 0 2 -1l1 -4v-5q0 -51 -36 -114q-14 -24 -59 -68q-35 -34 -105 -47q-1 1 -7 1q-24 0 -145 -8l-21 -8q-7 -39 -18 -106q-12 -82 -18 -115h-76q-82 0 -87 14v13q0 -1 89 553q12 78 34 81h267q182 -10 182 -150q0 -17 -3 -36z" />
    <glyph glyph-name="at" unicode="@" horiz-adv-x="1020" 
d="M87 482v-15q0 -10 22 -22q11 0 22 22v15q0 11 -22 23q-11 0 -22 -23zM333 467v-7q2 -15 15 -15h7q15 0 15 15v15zM936 482h45v8q0 15 -15 15h-7q-11 0 -23 -23zM884 557l8 -15v-97q0 -15 -15 -15l-8 15v97q3 15 15 15zM1041 519h37q15 -2 15 -14l-15 -8q-13 8 -30 8
l-7 -15q52 -13 52 -30v-8q0 -10 -22 -22h-38q-15 0 -15 15l15 7q13 -7 30 -7l8 15q-53 18 -53 30v7q0 11 23 22zM944 519h30q11 0 30 -29v-8q0 -15 -15 -15h-53v-15l38 -7q14 7 22 7l8 -15l-15 -7h-45q-12 0 -30 30v30q0 11 30 29zM802 519h30q15 -2 15 -14q-7 0 -7 -8
q-15 8 -23 8q-14 -8 -22 -8v-45l37 -7q0 7 8 7l7 -15l-15 -7h-30q-11 0 -30 30v30q0 11 30 29zM720 519q8 0 8 -7l15 7h15v-14q-30 0 -30 -53q0 -22 -15 -22l-8 15v60q3 14 15 14zM668 519l8 -14v-60q0 -15 -15 -15l-8 15v60q3 14 15 14zM325 519h45q11 0 22 -22v-52
q0 -15 -15 -15q-7 0 -7 7l-15 -7h-22q-11 0 -23 22v15q0 23 60 23q0 15 -45 15v14zM444 468v-23q0 -4 -1 -7q3 0 6 2l12 7l-4 6q-7 8 -13 15zM570 451q-6 34 -14 64q-4 -4 -7 -10v-30q0 -10 21 -24zM567 528q10 -37 17 -83q18 2 39 15l8 -15l-23 -15h-22q5 -34 8 -74l4 -6
l-12 -7l-4 6q-3 43 -9 81h-9q-38 19 -38 60q0 36 22 50q-13 43 -32 75q-65 110 -116 110q-13 0 -25 -7q-23 -35 -23 -69q0 -28 16 -55l3 -6q29 -35 51 -62v16q2 15 15 15l7 -15v-43q38 -47 45 -59l-8 -13q-14 -8 -35 -8q-8 0 -18 1q-8 -13 -14 -16q-15 -1 -21 -5q1 -2 1 -5
q0 -9 -9 -23l-12 -7l-25 1q1 -2 1 -5q0 -14 -19 -61l-24 -14l-6 12l-1 15l-6 -3l-14 -32l-6 -4q7 38 7 81q0 37 -5 76h-2l-7 15v37l-4 18l4 2v3q2 14 14 14l8 -14v-49l26 -143l6 4l31 98q2 -4 5 -4t5 2l1 -16l7 -12l16 42l12 7l7 -12l21 18l-3 5v50q-45 56 -66 92l-4 6
q-15 41 -15 72q0 48 37 69q13 7 27 7q57 0 130 -125l4 -6q15 -26 27 -64q10 3 24 3h10q3 15 14 41l6 4l11 -18q-16 -12 -16 -24v-4q5 -1 10 -7q12 12 12 46q0 55 -30 168l14 32l7 -12q21 -120 30 -135q17 -30 71 -39l126 73q91 29 142 59l36 21l11 -18l-6 -4
q-51 -29 -206 -87l-102 -60q-1 -1 -3 -1q-16 0 -80 33q7 -11 7 -27q0 -26 -19 -63q-2 -3 -4 -7l-6 -4q-4 -3 -8 -3q-7 0 -11 8l-6 11q-9 2 -17 2q-5 0 -12 -6zM127 432q-38 -71 -44 -205l19 -45q31 -26 61 -26q18 0 36 10q8 5 72 98q1 -2 1 -5q0 -27 -66 -105
q-28 -12 -52 -12q-45 0 -71 45l-4 6q-16 27 -16 63q0 69 57 174h-26q-12 0 -30 30v30q0 11 30 29h30q12 0 30 -29v-2q2 4 5 8l24 14h2q6 4 13 9h30q15 -2 15 -14q-7 0 -7 -8l-7 4l5 -9q-1 -26 -11 -46l5 -1q0 7 8 7l7 -15l-15 -7h-15q-11 -13 -26 -22l-11 18q7 4 13 8
q-9 7 -20 26v25q-8 -7 -15 -14v-11q0 -11 -27 -28zM199 494q-4 -5 -8 -12v-30l14 -3q11 15 11 31v1l-3 6q-3 6 -14 7zM-25 549h45q14 -2 14 -15q-7 0 -7 -7l-37 7q-15 -7 -23 -7v-22q75 -10 75 -30v-15q0 -12 -30 -30h-45q-10 0 -22 22q7 0 7 8q25 -15 45 -15q15 7 23 7v23
q-75 11 -75 30v14q0 12 30 30z" />
    <glyph glyph-name="A" unicode="A" horiz-adv-x="1438" 
d="M157 711q0 -227 163 -388q163 -162 394 -162t395 162q163 161 163 388q0 228 -163 389q-164 161 -395 161t-394 -161t-163 -389zM216 217q-207 205 -207 494q0 290 207 494q206 204 498 204t499 -204t207 -494q0 -289 -207 -494q-207 -204 -499 -204t-498 204zM576 994
q-139 -70 -172 -219q165 2 290 40q-83 136 -118 179zM745 711q-30 45 -30 52h-2q-148 -44 -316 -44v-6q0 -127 81 -213q99 157 267 211zM766 658q-167 -59 -247 -195q79 -82 174 -82q67 0 142 40q-28 143 -69 237zM920 947q-86 81 -197 81q-40 0 -84 -11q79 -116 117 -185
q112 44 164 115zM1023 659q-58 20 -121 20q-36 0 -74 -6q44 -135 60 -224q110 73 135 210zM955 909q-66 -80 -175 -123q4 -11 14 -31q10 -21 14 -32q35 5 74 5q68 0 145 -15q-3 115 -72 196zM1081 687q-12 -142 -108 -238q-97 -96 -239 -108h-44q-308 39 -347 346v45
q10 141 108 239q97 96 239 108h43q141 -11 240 -108q96 -95 108 -240v-44z" />
    <glyph glyph-name="B" unicode="B" horiz-adv-x="1450" 
d="M165 711q0 -227 162 -387q163 -161 393 -161t392 161q163 160 163 387q0 226 -163 386q-162 161 -392 161t-393 -161q-162 -160 -162 -386zM224 219q-206 204 -206 492t206 491q205 203 496 203q290 0 496 -203t206 -491t-206 -492q-206 -203 -496 -203q-291 0 -496 203z
M777 827q3 4 3 8t-3 8l-1 5q0 1 -1 3q-7 13 -13 16q-2 3 -4 3q-1 2 -3 2h-1q-4 4 -15 4q-32 2 -65 2q-32 0 -65 -2h-4q-17 -2 -27 -15v-2q-6 -5 -8 -19q-1 -3 -1 -6q0 -4 2 -9q0 -2 2 -8q1 0 1 -1q2 -7 8 -11q5 -6 9 -7q13 -5 15 -5q34 -1 68 -1t68 1q4 0 4 1l3 1
q17 4 24 20q2 1 3 7zM901 581q1 2 1 5t-1 7q0 7 -4 12q-2 7 -8 11q-4 6 -9 7q-4 7 -6 7v-3h-3q-2 0 -5 1q-65 2 -130 2t-130 -2q-4 -1 -5 -1h-4v3q-2 0 -6 -7q-8 -3 -14 -13q-2 -1 -3 -5q-4 -5 -4 -12v-12q2 -21 22 -32q4 -3 13 -4h4q64 -1 127 -1t126 1h4q13 1 19 8
q6 2 8 9q7 5 8 19zM1066 590l-3 -24q-4 -28 -12 -47q-2 -6 -2 -7q-4 -7 -7 -15q-5 -7 -5 -10q-2 -1 -2 -4q-4 -4 -8 -11q-25 -33 -59 -57l-2 -1l-28 -15q-31 -12 -63 -17q-18 0 -21 -2h-237q-2 1 -19 2q-22 4 -42 8q-6 3 -14 6h-1q-12 5 -14 6q-1 1 -3 2t-3 1q-24 9 -24 11
q2 0 8 -2q-46 31 -76 82q-1 0 -4 11q-5 7 -10 24v2q0 1 -1 2q-6 23 -7 35l-2 20v241l2 18q4 29 13 54q-5 -4 -6 -4q0 2 11 15v-1q1 0 2 7q10 18 12 21q1 0 1 2q27 39 65 64q7 2 11 7q5 1 8 4q2 0 3 1q7 2 11 5q2 0 4 1q1 1 2 1h1q10 4 11 5l4 1h2q1 0 1 1q8 0 13 3
q19 3 22 3q17 1 19 2h114l-2 1q0 1 2 1q5 0 27 -5q12 -2 16 -2q3 -2 15 -4q2 -1 4 -1h2q1 -1 10 -5q7 -2 29 -12h1l-4 3v1q1 0 13 -10q9 -7 13 -8q2 -4 7 -5q31 -31 36 -37q0 -2 5 -6q3 -7 9 -14q3 -10 9 -17q3 -9 5 -13l1 -4l4 -12q2 -8 8 -40v-7q1 -8 1 -10v-4q0 -5 3 -10
q0 -4 5 -9q3 -7 10 -10q3 -5 14 -8q2 -1 7 -1q49 -9 61 -9q15 -7 22 -29q0 -8 2 -9v-156z" />
    <glyph glyph-name="C" unicode="C" horiz-adv-x="1438" 
d="M158 722q0 -230 164 -392q165 -163 398 -163t398 163q164 162 164 392q0 229 -164 392q-165 162 -398 162t-398 -162q-164 -163 -164 -392zM218 224q-209 206 -209 498t209 498q208 205 502 205t502 -205q209 -206 209 -498t-209 -498q-208 -206 -502 -206t-502 206z
M440 1105q365 0 601 -362q84 -172 84 -333l-10 -5h-114q-9 0 -30 154q-86 244 -283 347q-88 50 -263 70v119q0 10 15 10zM435 867q276 0 422 -293q30 -88 30 -159q0 -10 -10 -10h-114q-8 0 -30 119q-58 126 -169 179q-44 20 -139 35v119q2 10 10 10zM524 594q68 0 90 -95
q-19 -94 -95 -94q-94 16 -94 94q0 81 99 95z" />
    <glyph glyph-name="D" unicode="D" horiz-adv-x="1518" 
d="M201 715q0 -231 166 -395t400 -164q235 0 401 164q165 164 165 395t-165 395q-166 164 -401 164q-234 0 -400 -164t-166 -395zM261 213q-210 208 -210 502t210 501q210 208 506 208q297 0 506 -208q210 -207 210 -501t-210 -502q-209 -207 -506 -207q-296 0 -506 207z
M1096 632q0 29 -4 137h-51v-148q39 4 50 4h5v7zM1174 835v-379h-212v63h130v31h-7q-27 0 -123 4v281h212zM845 621v148h-50v-148h50zM927 835v-379h-214v63h132l3 31h-10q-26 0 -125 4v281h214zM678 835v-281h-82v281h82zM678 949v-82h1q0 -1 -6 -1q-16 0 -77 4v79h82z
M482 621v148h-51q-4 -110 -4 -140v-11l1 3h54zM561 949v-395h-212v281h133l3 114h76z" />
    <glyph glyph-name="E" unicode="E" horiz-adv-x="1438" 
d="M158 714q0 -228 164 -390t396 -162t396 162t164 390t-164 390t-396 162t-396 -162t-164 -390zM218 218q-208 205 -208 496q0 290 208 496q207 204 500 204t500 -204q208 -206 208 -496q0 -291 -208 -496q-207 -205 -500 -205t-500 205zM845 690q72 43 112 74
q-184 113 -226 141q-108 -62 -234 -145q34 -19 116 -71q73 -46 118 -70q23 16 114 71zM1120 631q-101 -64 -226 -149q-23 15 -163 134q-32 -23 -82 -66q-57 -49 -81 -68q-41 23 -117 74q-76 52 -117 75q20 17 160 129q-21 20 -80 65q-52 40 -76 69q209 138 222 148h11
q86 -79 160 -134q23 22 78 67q51 42 77 67h8q118 -81 226 -148q-43 -43 -115 -100q-38 -30 -41 -30q0 -4 78 -67q66 -52 78 -66zM961 445q-43 -24 -116 -68q-81 -50 -114 -69q-45 23 -118 68q-84 51 -116 69v52q13 -6 34 -20q22 -15 33 -21q30 17 87 68q53 48 84 62
q26 -25 77 -67q55 -45 78 -66l71 44v-52z" />
    <glyph glyph-name="F" unicode="F" horiz-adv-x="1449" 
d="M893 1034v-125q0 -1 -1 -1h-40q-16 1 -24 1q-13 0 -22 -1q-10 -2 -18 -5q-5 -6 -7 -17q-2 -8 -2 -21q0 -7 1 -21t1 -21t-1 -13q16 -3 42 -3q8 0 26 1h44q1 0 1 -1q-1 -33 -4 -62q-3 -30 -7 -57l-99 -1q-3 -55 -3 -135v-213q0 -1 -1 -1h-150v349h-76v121h73q1 11 3 91
q1 51 14 74q21 39 71 52q37 10 110 10h29zM157 704q0 -233 167 -398q168 -165 404 -165q237 0 404 165t167 398t-167 398q-167 166 -404 166q-236 0 -404 -166q-167 -165 -167 -398zM218 199q-212 209 -212 505q0 297 212 506q211 209 510 209t511 -209t212 -506
q0 -296 -212 -505q-212 -210 -511 -210t-510 210z" />
    <glyph glyph-name="G" unicode="G" horiz-adv-x="1479" 
d="M156 715q0 -230 165 -393q166 -164 400 -164q233 0 399 164q165 163 165 393t-165 393q-166 164 -399 164q-234 0 -400 -164q-165 -163 -165 -393zM216 215q-209 207 -209 500t209 500q209 206 505 206q295 0 504 -206q209 -207 209 -500t-209 -500q-209 -206 -504 -206
q-296 0 -505 206zM1166 690l-66 -5q0 -16 -7 -68h-73l-5 66q-16 0 -69 7v73l66 6q0 16 8 67h73l5 -66q15 0 68 -7v-73zM854 763q1 -17 1 -34q0 -127 -68 -200q-63 -68 -170 -68q-24 0 -51 4q-82 11 -146 75q-64 65 -74 150q-2 20 -2 39q0 144 134 221q68 39 133 39
q84 0 165 -65q-26 -43 -69 -68q-41 36 -88 39q-9 1 -18 1q-141 0 -156 -150q-2 -17 -2 -32q0 -130 123 -156q30 -6 55 -6q111 0 135 118l-8 -2q-29 0 -138 7v88h244z" />
    <glyph glyph-name="H" unicode="H" horiz-adv-x="1438" 
d="M164 723q0 -228 163 -389q163 -162 395 -162q231 0 394 162q164 161 164 389q0 227 -164 389q-163 161 -394 161q-232 0 -395 -161q-163 -162 -163 -389zM223 229q-207 204 -207 494q0 289 207 494q207 204 499 204t498 -204q207 -205 207 -494q0 -290 -207 -494
q-206 -205 -498 -205t-499 205zM886 597q8 22 8 42q0 36 -26 64q-28 30 -113 50q-60 15 -65 16q-42 14 -42 39v1q0 30 42 41q18 5 33 5q20 0 37 -8q18 -8 32 -32q19 -31 31 -34q9 -3 17 -3q25 0 32 30q1 6 1 13q0 36 -44 65q-38 25 -100 25h-9q-153 -3 -153 -107
q0 -75 102 -106q132 -40 136 -62q1 -7 1 -13q0 -38 -54 -48q-18 -4 -33 -4q-36 0 -57 20q-8 7 -24 38q-14 26 -28 31q-15 4 -26 4q-28 0 -28 -27q0 -14 7 -35q25 -78 127 -89q23 -2 44 -2q121 0 152 86zM1058 553q-22 -153 -174 -174h-28q-43 8 -66 18l-12 9q0 -2 -48 -2
q-133 0 -224 90q-89 90 -89 222l2 49l-16 32q-6 17 -10 45v29q22 151 173 173h29q43 -8 66 -18l14 -8q0 1 44 2h6q121 0 211 -82q97 -90 97 -226v-18q0 -25 14 -67q6 -18 11 -46v-28z" />
    <glyph glyph-name="I" unicode="I" 
d="M155 742q1 -228 164 -390q165 -163 397 -163q233 0 397 163q164 162 164 390q0 229 -164 391q-164 163 -397 163q-232 0 -397 -163q-163 -162 -164 -391zM215 216q-208 205 -208 496q0 292 208 497t501 205q294 0 501 -205q208 -205 208 -497q0 -291 -208 -496
q-207 -205 -501 -205q-293 0 -501 205zM602 337q-127 0 -143 6q-93 32 -101 120q-1 18 -1 174q0 144 1 174q49 2 102 2t110 -2q-32 -62 -32 -114q0 -17 3 -32q18 -88 103 -130q43 -22 85 -22q44 0 88 24q79 43 94 129q3 15 3 30q0 53 -32 115l34 -1q53 0 178 1
q-1 -24 -1 -59q0 -48 2 -117q1 -49 1 -87q0 -51 -2 -82q-9 -114 -119 -129h-373zM1027 949q0 52 -6 58t-51 6h-13q-44 -1 -47 -4q-6 -5 -6 -56q0 -53 4 -58q6 -7 55 -7q51 0 57 6q7 7 7 55zM864 835q0 2 -31 23q-55 36 -108 36q-56 0 -111 -41q-26 -19 -25 -18h-232
q-1 21 -1 41q0 139 63 172v-153q0 1 3 1q6 0 26 -2q3 137 3 168v5q2 0 8 2q5 2 9 2v-13q0 -39 2 -163q0 1 3 1q7 0 28 -2v180q0 2 1 3h19l2 -181q7 0 28 -2v183q30 1 69 1q40 0 89 -1q125 -2 159 -2h104q100 -12 118 -111v-9q0 -26 5 -120h-231zM651 626q32 -31 70 -31
q23 0 48 11q64 28 64 96v8q-3 45 -37 74q-29 25 -67 25q-10 0 -21 -2q-84 -13 -88 -100v-8q0 -43 31 -73zM846 784q25 -38 25 -82q0 -7 -1 -15q-10 -119 -129 -129q-8 -1 -16 -1q-57 0 -98 38q-47 42 -47 108v8q2 32 21 64q37 63 107 71q12 1 22 1q73 0 116 -63z" />
    <glyph glyph-name="J" unicode="J" horiz-adv-x="1442" 
d="M157 717q0 -230 165 -394q165 -163 399 -163t400 163q165 164 165 394q0 231 -165 394q-166 163 -400 163t-399 -163t-165 -394zM217 217q-210 207 -210 500t210 500q209 207 504 207q296 0 505 -207q210 -207 210 -500t-210 -500q-209 -207 -505 -207q-295 0 -504 207z
M702 844v-6q0 -68 -45 -119q-53 -61 -129 -61q-16 0 -33 3q-151 23 -151 173v10q3 93 80 143q36 25 85 29q10 1 20 1q108 0 157 -104q15 -32 16 -69zM1088 845v-11q0 -90 -78 -144q-48 -33 -99 -33q-42 0 -85 23q-87 47 -94 142q-1 8 -1 16q0 64 43 115q47 56 122 63
q10 1 19 1q92 0 146 -82q25 -37 27 -90zM786 427q-23 -10 -44 -10q-37 0 -63 32q-21 25 -21 51q0 24 18 48q26 34 61 34q22 0 48 -13q-4 -39 -4 -37q-13 8 -26 8q-12 0 -23 -7q-20 -12 -20 -35q0 -4 1 -8q6 -38 32 -38q16 0 39 13q2 -9 2 -38zM537 640v-217h-49q2 154 2 201
l-1 16h48zM1082 554q0 -14 -1 -21q-5 1 -9 1q-44 0 -44 -107v-4h-50q-1 38 -1 76t1 75h45v-26q18 30 43 30q8 0 17 -3zM953 574q-8 -13 -24 -34q-17 -24 -24 -34l53 -82l-5 1q-13 0 -54 -2q-7 12 -21 37q-13 25 -20 37l1 -6q0 -16 -2 -68h-50v217h50v-128l43 62h53zM631 574
q-1 -119 -1 -147v-4h-49q2 107 2 140l-1 11h49zM630 637l-3 -36q-11 0 -46 -2v38h49zM460 571q0 -8 2 -33q-33 -1 -36 -1v-114h-50v114q-3 1 -8 1h-21v36h28v12q0 59 55 59q15 0 33 -4q-1 -6 -2 -19t-2 -17q-11 4 -18 4q-17 0 -17 -20q0 -7 2 -15z" />
    <glyph glyph-name="K" unicode="K" horiz-adv-x="1432" 
d="M153 712q0 -229 165 -392t398 -163q234 0 399 163q164 163 164 392q0 230 -164 393q-165 163 -399 163q-233 0 -398 -163t-165 -393zM213 214q-209 206 -209 498q0 293 209 499q208 206 503 206t503 -206q209 -206 209 -499q0 -292 -209 -498q-208 -206 -503 -206
t-503 206zM476 1123q75 0 75 -89v-336q214 217 226 217q17 4 31 4q47 0 57 -66v-9q0 -53 -141 -164l-5 -8v-5q155 -217 155 -243v-5q-10 -75 -71 -75q-53 0 -119 124q-71 101 -75 102q-7 0 -58 -58v-88q-12 -80 -75 -80q-56 0 -71 75v629q14 75 71 75zM1016 760
q92 0 106 -111q0 -85 -111 -101q-97 21 -97 97v18q0 75 102 97z" />
    <glyph glyph-name="L" unicode="L" horiz-adv-x="1440" 
d="M156 713q0 -229 164 -391q164 -163 397 -163q232 0 397 163q164 162 164 391t-164 391q-165 163 -397 163q-233 0 -397 -163q-164 -162 -164 -391zM215 216q-208 206 -208 497t208 497q208 205 502 205q293 0 501 -205q208 -206 208 -497t-208 -497q-207 -205 -501 -205
t-502 205zM559 654q0 -137 -2 -221h-137v441q0 3 1 3q98 -2 128 -2l10 1v-222zM479 1096q6 1 13 1q31 0 53 -21q25 -24 25 -60v-10q-7 -62 -71 -69q-9 -1 -17 -1q-72 0 -73 80v2q0 69 70 78zM1078 661v-112q0 -119 -1 -119t-1 4q-35 -1 -70 -1t-70 1v146q0 163 -38 180
q-24 11 -43 11q-38 0 -60 -42q-10 -20 -12 -53q-1 -18 -1 -49q0 -30 1 -74q1 -34 1 -60q0 -38 -2 -60q-98 2 -128 2l-10 -1v442l9 -1q29 0 124 2v-61q48 68 124 72h16q78 0 118 -46q42 -50 43 -181z" />
    <glyph glyph-name="M" unicode="M" horiz-adv-x="1450" 
d="M160 717q0 -229 164 -392q165 -163 398 -163t398 163q164 163 164 392t-164 392q-165 163 -398 163t-398 -163q-164 -163 -164 -392zM220 219q-209 206 -209 498t209 498q207 205 499 205h6q292 0 499 -205q209 -206 209 -498t-209 -498q-208 -206 -502 -206t-502 206z
M826 1055q12 1 23 1q100 0 100 -113v-6q-2 -104 -89 -104q-22 0 -48 6q-80 19 -80 92q0 12 2 24q14 92 92 100zM407 928q0 68 61 68h9q67 -6 67 -67v-5q-4 -63 -55 -63q-15 0 -35 6q-47 14 -47 61zM610 1013q20 5 36 5q66 0 69 -84v-8q0 -74 -61 -74q-18 0 -40 6
q-53 14 -57 77v10q0 55 53 68zM807 811q21 4 40 4q110 0 139 -124q10 -46 10 -233v-66l-14 2q-60 0 -292 -7v136h-160v2q0 11 -5 69h-141v179q2 59 76 72q14 2 26 2q52 0 67 -46q28 35 79 35q11 0 23 -2q69 -8 82 -61q65 37 70 38z" />
    <glyph glyph-name="N" unicode="N" horiz-adv-x="1446" 
d="M155 713q0 -231 165 -395q166 -164 401 -164t401 164q165 164 165 395t-165 395q-166 164 -401 164t-401 -164q-165 -164 -165 -395zM215 212q-210 207 -210 501t210 501q210 208 506 208q297 0 506 -208q210 -207 210 -501t-210 -501q-209 -208 -506 -208
q-296 0 -506 208zM811 945q123 0 185 -121q9 -20 14 -57h2q26 6 33 6h17q58 0 93 -66l11 -28v-36q-34 -92 -104 -92h-321q-3 0 -7 7v365q7 14 77 22zM706 918h7q10 -6 10 -13q1 -167 5 -253q-5 -59 -5 -90q-3 -8 -10 -11h-7q-9 6 -9 13q0 32 -4 102q4 144 4 241q2 7 9 11z
M668 896h7l7 -6q2 -48 6 -233q-4 -104 -9 -104l-4 -2h-7q-3 0 -8 7q0 2 2 2q-2 4 -2 6q0 35 -3 77q3 179 3 247zM556 870h4q2 0 7 -7q5 -181 5 -208l-5 -98l-7 -6h-4q-11 0 -11 86q-2 0 -2 18l6 209zM594 866q8 -2 11 -9l6 -202l-6 -98l-7 -6h-6q-7 4 -7 9q0 38 -5 94l1 12
q4 157 4 193zM519 863h2q5 -2 9 -13q0 -2 -2 -2q2 -19 8 -193q-6 -104 -11 -104h-6q-11 0 -11 81q-2 0 -2 23l6 202zM631 859q10 0 13 -7l5 -198q-5 -85 -5 -97l-8 -6h-1q-10 0 -11 6q-4 87 -6 104q3 196 9 196zM481 846h3q3 0 8 -7q3 -135 7 -184q-8 -101 -11 -104h-7
q-9 3 -9 90q-2 0 -2 13l5 181q2 11 6 11zM444 811h4q2 0 5 -5q8 -130 8 -154q-5 -101 -13 -101h-2q-9 0 -11 92q-2 0 -2 11q5 157 11 157zM373 758h1q8 0 13 -106q-6 -99 -13 -99h-1q-7 0 -11 102q5 103 11 103zM338 756q6 0 14 -102q-9 -95 -12 -97h-2q-5 0 -13 97
q7 102 13 102zM409 753h2q9 0 9 -65q2 0 4 -36q-7 -99 -11 -99h-6q-3 0 -3 5q0 17 -8 96q7 99 13 99zM303 740q5 -8 13 -85q-9 -84 -13 -84q-6 0 -13 84q7 85 13 85zM268 709q7 0 11 -55q-4 -52 -11 -52q-4 0 -9 52q5 55 9 55z" />
    <glyph glyph-name="O" unicode="O" horiz-adv-x="1444" 
d="M157 710q0 -230 165 -394q166 -164 400 -164t400 164q165 164 165 394q0 231 -165 394q-166 164 -400 164t-400 -164q-165 -163 -165 -394zM217 210q-210 207 -210 500q0 294 210 501q208 206 502 206h6q294 0 502 -206q210 -207 210 -501q0 -293 -210 -500
q-209 -207 -505 -207t-505 207zM592 427q-73 198 -152 405q-28 -57 -28 -123q0 -12 1 -24q12 -180 179 -258zM789 545q-32 87 -51 133q-13 -38 -48 -136q-30 -85 -47 -136q48 -15 93 -15q54 0 103 21q-16 41 -50 133zM889 868q-5 14 -5 26q0 17 9 32q15 25 44 25h2
q-91 82 -211 82q-13 0 -27 -1q-155 -11 -242 -141q42 0 66 1h16q36 0 36 -11v-2q-1 -5 -48 -12q76 -225 117 -338l-2 -7q0 -2 72 211l-52 138l1 -4q-45 7 -45 15v1q0 11 26 11q7 0 16 -1q23 -1 50 -1t57 1q11 1 19 1q27 0 29 -8v-2q0 -13 -46 -17q8 -26 86 -251
q27 -79 30 -84q12 43 28 96q25 79 27 98q0 1 -53 142zM1063 690q1 11 1 21q0 77 -38 145v1h-1q1 -13 1 -26q0 -49 -15 -93q-12 -33 -54 -148q-33 -90 -52 -148q148 86 158 248zM1107 684q-12 -144 -110 -242t-241 -110h-46q-143 12 -241 110t-110 242v45q10 142 110 242
q98 98 241 110h46q143 -12 241 -110t110 -242v-45z" />
    <glyph glyph-name="P" unicode="P" 
d="M157 702q0 -230 165 -394q165 -163 399 -163t399 163q165 164 165 394t-165 393t-399 163t-399 -163t-165 -393zM217 202q-210 207 -210 500q0 292 210 499q209 207 504 207t504 -207t209 -499q0 -293 -209 -500q-209 -206 -504 -206t-504 206zM1006 952q97 -107 97 -254
q0 -17 -1 -35q-10 -132 -104 -229q-110 -113 -257 -113q-58 0 -121 17q41 62 68 181q0 -2 22 -17q34 -24 71 -24q49 0 104 44q86 68 86 185q0 11 -1 23q-6 88 -73 146q-66 57 -158 57q-111 0 -183 -70q-66 -64 -66 -152q0 -8 1 -17q6 -94 84 -136q6 6 10 24q3 21 7 27
q-31 40 -31 92q0 14 2 29q11 73 69 110q38 25 93 25h12q68 -3 106 -42q49 -50 49 -112q0 -50 -32 -108q-35 -62 -87 -62q-11 0 -23 3q-34 8 -40 42l28 118q5 20 5 36q0 47 -44 49h-7q-64 0 -66 -90q0 -11 5 -31q6 -20 6 -28q0 -5 -25 -110q-22 -89 -22 -149q0 -17 2 -31
q-235 115 -235 346q0 18 1 37q11 143 116 240q107 98 256 98q168 0 276 -119z" />
    <glyph glyph-name="Q" unicode="Q" horiz-adv-x="1415" 
d="M146 716q0 -226 162 -386q162 -161 392 -161q229 0 392 161q161 160 161 386t-161 386q-163 160 -392 160q-230 0 -392 -160t-162 -386zM700 23h-3q-288 0 -492 202q-206 203 -206 491q0 287 206 490q205 203 495 203t495 -203t205 -490q0 -288 -205 -491
q-205 -202 -495 -202zM837 773h-114q-3 -174 -3 -177q10 -67 55 -67q20 0 47 13q23 -64 30 -85q-52 -34 -107 -34q-33 0 -67 12q-93 33 -105 129q-2 18 -2 47q0 21 1 49q2 41 2 71v37q0 -1 -5 -1q-13 0 -55 6v77q96 30 118 161h88l-2 -145q35 0 119 -5v-88z" />
    <glyph glyph-name="R" unicode="R" horiz-adv-x="1465" 
d="M158 720q0 -233 167 -399q168 -166 405 -166q238 0 405 166q168 166 168 399q0 234 -168 400q-167 165 -405 165q-237 0 -405 -165q-167 -166 -167 -400zM218 213q-212 210 -212 507q0 298 212 508q212 209 512 209t512 -209q213 -210 213 -508q0 -297 -213 -507
q-212 -209 -512 -209t-512 209zM546 673q13 -36 48 -36q11 0 25 4q42 11 42 47q0 12 -5 28q-12 36 -52 36h-6q-59 -4 -59 -46q0 -14 7 -33zM827 512q48 19 48 41v3q-2 2 -6 2q-11 0 -40 -15q-54 -28 -104 -28q-65 0 -121 47q-17 -4 -17 -12q0 -7 9 -15q17 -16 41 -25
q47 -18 93 -18q49 0 97 20zM881 639q38 11 38 46q0 9 -2 19q-10 48 -54 48h-5q-41 -3 -52 -36q-4 -13 -4 -24q0 -24 19 -40q18 -16 40 -16q10 0 20 3zM1004 835q16 4 29 4q53 0 72 -60q6 -19 6 -36q0 -45 -48 -66v-11q0 -168 -200 -227q-73 -21 -141 -21q-114 0 -212 61
q-111 70 -111 176q0 10 1 20q-36 36 -38 36v-1q-13 22 -13 43q0 30 27 59t58 29q22 0 45 -14q13 -9 13 -10l47 24q88 43 178 44q0 3 33 161q9 44 17 48h1q7 0 70 -13q67 -14 72 -14h1q6 1 20 15t25 16q8 1 15 1q46 0 55 -51q2 -10 2 -18q0 -43 -44 -51q-10 -2 -19 -2
q-48 0 -57 58q-21 4 -60 13q-42 9 -60 12q-4 -14 -38 -173q148 -16 219 -73q23 18 35 21z" />
    <glyph glyph-name="S" unicode="S" horiz-adv-x="1420" 
d="M151 720q0 -227 163 -388t394 -161q230 0 394 161q162 161 162 388t-162 388q-164 161 -394 161q-231 0 -394 -161t-163 -388zM210 227q-206 204 -206 493t206 493q205 203 495 203h6q289 0 494 -203q207 -204 207 -493t-207 -493q-206 -204 -497 -204q-292 0 -498 204z
M953 515q-7 -4 -11 -22t-11 -22q-18 6 -39 6q-44 0 -96 -30t-95 -30q-19 0 -36 6q-138 49 -167 49l-3 -1q0 6 -21 44q-85 12 -85 39v2q0 2 55 29q90 45 90 98q0 6 -1 13q-4 17 -43 31q-35 13 -35 31v1q2 22 30 22q17 0 44 -8q7 18 7 53v16q-1 15 -1 27q0 29 5 44
q35 113 163 113q17 0 36 -2q154 -16 154 -173q0 -34 -7 -74h8q76 0 77 -18v-2q0 -20 -32 -32q-41 -15 -49 -25q20 -90 144 -137q0 -26 -81 -48z" />
    <glyph glyph-name="T" unicode="T" horiz-adv-x="1488" 
d="M169 700q0 -235 169 -401q168 -167 407 -167t407 167q169 166 169 401t-169 402q-168 166 -407 166t-407 -166q-169 -167 -169 -402zM230 190q-213 211 -213 510t213 510q214 211 515 211t515 -211q213 -211 213 -510t-213 -510q-213 -210 -515 -210q-301 0 -515 210z
M1097 860q-21 -18 -21 -19v-18q0 -120 -61 -225q-58 -101 -149 -157q-105 -64 -241 -64q-123 0 -234 70q19 -2 38 -2q100 0 183 59q9 6 9 8q-110 8 -145 109q18 -4 33 -4q20 0 36 7q-118 32 -125 155q34 -18 70 -19q-47 34 -62 86q-8 25 -8 48q0 40 23 75q129 -150 323 -164
q-4 20 -4 39q0 52 35 95q43 53 115 59h15q50 -3 87 -32q21 -16 21 -18l14 4q35 8 84 33q-17 -50 -63 -82l-4 -3q46 5 87 24q-20 -33 -56 -64z" />
    <glyph glyph-name="U" unicode="U" horiz-adv-x="1442" 
d="M162 713q0 -229 164 -390q164 -162 395 -162q232 0 396 162q163 161 164 390q-1 228 -164 390q-164 161 -396 161q-231 0 -395 -161q-164 -162 -164 -390zM221 217q-207 205 -207 496q0 290 207 495t500 205t500 -205q208 -205 208 -495q0 -291 -208 -496
q-207 -204 -500 -204t-500 204zM1049 560q23 -29 23 -44q0 -2 -1 -4q-4 -20 -62 -20l-21 -1h-20q-43 0 -48 1q-31 7 -65 46q-24 28 -26 30q-19 21 -33 21h-2q-14 -1 -22 -21q-5 -12 -7 -31q-3 -32 -6 -35q-6 -8 -63 -10h-6q-55 0 -113 32q-55 30 -105 97q-67 90 -129 224
q-12 25 -12 34q0 3 1 4q4 11 62 11h36q40 0 49 -6q5 -5 14 -24q30 -70 67 -123q10 -14 17 -22q12 -13 22 -13h3q13 2 18 30q3 19 3 43q0 66 -10 83q-7 13 -36 21q8 27 69 30q15 1 28 1q74 0 86 -20q6 -10 6 -39v-9q-3 -56 -3 -84q0 -13 1 -20q3 -34 18 -35h1q10 0 24 15
q18 20 47 68q21 36 38 79q7 19 16 22q4 2 43 2q45 0 86 1h4q24 0 29 -11q1 -3 1 -7q0 -17 -21 -53q-15 -25 -43 -61q-34 -45 -44 -60q-12 -18 -12 -29v-3q2 -11 30 -39q54 -53 68 -71z" />
    <glyph glyph-name="V" unicode="V" horiz-adv-x="1456" 
d="M154 720q0 -231 165 -395q166 -164 401 -164t401 164q165 164 166 395q-1 231 -166 395q-166 164 -401 164t-401 -164q-165 -164 -165 -395zM214 218q-210 208 -210 502t210 501q209 208 506 208t506 -208q211 -207 211 -501t-211 -502q-209 -207 -506 -207t-506 207z
M960 1019q9 1 18 1q104 0 104 -88q0 -13 -3 -29q-8 -49 -63 -168q-78 -168 -189 -273q-82 -78 -141 -89q-14 -3 -26 -3q-14 0 -26 4q-42 14 -71 89q-17 46 -36 123q-21 87 -34 125q-33 100 -51 106q-6 2 -13 2q-13 0 -30 -6q-21 -8 -34 -8q-4 0 -7 1q-5 1 -16 17l-14 17
q15 13 48 41t51 43q80 69 120 75q5 1 11 1q71 0 104 -168q37 -191 38 -193q21 -36 49 -36h4q27 2 64 69q33 60 37 97q1 11 1 21q0 24 -9 38q-13 21 -79 21h-6q24 66 65 104q67 62 134 66z" />
    <glyph glyph-name="W" unicode="W" horiz-adv-x="1442" 
d="M164 729q0 -229 164 -391t396 -162q233 0 397 162t164 391t-164 391t-397 162q-232 0 -396 -162t-164 -391zM224 233q-208 205 -208 496t208 496q207 206 500 206q294 0 501 -206q208 -205 208 -496t-208 -496q-207 -205 -500 -205q-294 0 -501 205zM1037 677
q14 47 14 91q0 103 -75 190q-92 109 -234 109q-12 0 -24 -1q-84 -5 -153 -55q-129 -94 -129 -243q0 -18 2 -36q6 -61 37 -116q18 -33 19 -33l-10 -28q-25 -75 -28 -83l117 37q71 -42 134 -49q17 -2 33 -2q65 0 124 26q132 59 173 193zM1107 740q-19 -190 -176 -287
q-78 -48 -179 -52h-11q-85 0 -175 45q-19 -6 -100 -31q-62 -20 -99 -33q-2 0 -3 3l-2 -5q0 2 59 172q4 11 4 22t-5 22q-43 85 -43 170q2 138 104 247q89 96 239 111h45q143 -13 235 -105q94 -94 107 -234v-45zM926 679q1 -5 1 -10q0 -43 -41 -64q-25 -12 -47 -12h-9
q-40 6 -93 31q-70 33 -130 117q-42 61 -42 102q0 71 46 83q10 3 19 3t17 -4q5 -3 22 -41q18 -42 18 -46q0 -10 -13 -25q-17 -21 -17 -22q0 -8 24 -39q31 -39 66 -59q32 -18 43 -18h1q7 1 24 23q18 23 23 23h1q8 0 46 -19q33 -16 41 -23z" />
    <glyph glyph-name="X" unicode="X" horiz-adv-x="1479" 
d="M170 710q0 -232 166 -397q167 -164 403 -164t403 164q167 165 167 397q0 233 -167 397q-167 165 -403 165t-403 -165q-166 -164 -166 -397zM230 206q-211 209 -211 504q0 296 211 505q211 208 509 208t509 -208q211 -209 211 -505q0 -295 -211 -504q-211 -208 -509 -208
t-509 208zM882 1098q148 0 175 -153v-57q-11 -124 -34 -124h-40q-67 19 -67 40q11 51 11 73v34q0 57 -51 68q-42 0 -51 -74v-50q33 -159 158 -159h57l11 6l6 -12v-73q0 -17 -96 -28q-155 -265 -260 -289q-99 0 -232 266q-74 153 -108 407l11 6h113q8 0 46 -181
q25 -171 170 -368h5q78 84 136 193q-147 88 -147 265q0 144 119 199q39 11 68 11z" />
    <glyph glyph-name="Y" unicode="Y" horiz-adv-x="1432" 
d="M161 723q0 -228 164 -390t396 -162t396 162q163 162 163 390q0 229 -163 390q-164 162 -396 162t-396 -162q-164 -161 -164 -390zM221 228q-208 205 -208 495q0 291 208 496q207 205 500 205t500 -205t207 -496q0 -290 -207 -495t-500 -205t-500 205zM765 772
q-67 36 -100 52q3 -165 3 -203l-1 -5q27 15 99 52q64 33 99 53q-35 17 -100 51zM1043 467q-19 -7 -152 -13q-60 -3 -134 -3q-88 0 -196 4q-129 5 -157 40q-33 40 -33 216q0 230 84 251q13 3 114 8q22 1 64 1t60 1q27 1 60 1q55 0 126 -3q182 -8 206 -48q27 -43 27 -215
q0 -213 -69 -240z" />
    <glyph glyph-name="Z" unicode="Z" horiz-adv-x="1460" 
d="M163 722q0 -231 166 -395t402 -164q235 0 401 164t166 395q0 232 -166 396t-401 164q-236 0 -402 -164t-166 -396zM223 220q-210 208 -210 502q0 295 210 503q210 207 508 207q297 0 507 -207q210 -208 210 -503q0 -294 -210 -502t-507 -208q-298 0 -508 208zM832 1085
q182 -10 182 -150q0 -18 -3 -39v-1h-1q-36 24 -235 24q-79 0 -87 -7q-7 -6 -15 -60q-20 -127 -32 -196q1 -2 2 -2q-8 -40 -20 -115q-12 -82 -18 -115h-76q-82 0 -87 14v13q0 -1 89 553q12 78 34 81h267zM1014 874v-5q0 -47 -33 -105q-13 -22 -55 -63q-35 -34 -109 -45l12 2
q0 1 -6 1q-22 0 -134 -8l-25 -9l-11 -12q0 5 1 13q12 68 31 193q8 52 15 58q8 7 84 7q194 0 229 -24zM1089 738q-18 -215 -225 -223q-2 0 -3 1q-8 0 -35 -2q-19 -3 -33 -89q-2 -9 -4 -25q-3 -17 -4 -25q-10 -61 -29 -67h-132q-1 1 -3 83q7 33 18 109q10 70 19 109l-3 -1
q1 22 38 25q115 8 138 8q6 0 6 -1q63 10 99 44q44 42 57 65q33 57 33 108v8l2 -2q58 -32 61 -104v-21z" />
    <glyph glyph-name="a" unicode="a" horiz-adv-x="1438" 
d="M320 1100q163 161 394 161t395 -161q163 -161 163 -389q0 -227 -163 -388q-164 -162 -395 -162t-394 162q-163 161 -163 388q0 228 163 389zM694 815q-125 -38 -290 -40q33 149 172 219q35 -43 118 -179zM478 500q-81 86 -81 213v6q168 0 316 44h2q0 -7 30 -52
q-168 -54 -267 -211zM835 421q-75 -40 -142 -40q-95 0 -174 82q80 136 247 195q41 -94 69 -237zM756 832q-38 69 -117 185q44 11 84 11q111 0 197 -81q-52 -71 -164 -115zM888 449q-16 89 -60 224q38 6 74 6q63 0 121 -20q-25 -137 -135 -210zM1027 713q-77 15 -145 15
q-39 0 -74 -5q-4 11 -14 32q-10 20 -14 31q109 43 175 123q69 -81 72 -196zM1081 731q-12 145 -108 240q-99 97 -240 108h-43q-142 -12 -239 -108q-98 -98 -108 -239v-45q39 -307 347 -346h44q142 12 239 108q96 96 108 238v44z" />
    <glyph glyph-name="b" unicode="b" horiz-adv-x="1450" 
d="M327 1097q163 161 393 161t392 -161q163 -160 163 -386q0 -227 -163 -387q-162 -161 -392 -161t-393 161q-162 160 -162 387q0 226 162 386zM776 822q-1 -6 -3 -7q-7 -16 -24 -20l-3 -1q0 -1 -4 -1q-34 -1 -68 -1t-68 1q-2 0 -15 5q-4 1 -9 7q-6 4 -8 11q0 1 -1 1
q-2 6 -2 8q-2 5 -2 9q0 3 1 6q2 14 8 19v2q10 13 27 15h4q33 2 65 2q33 0 65 -2q11 0 15 -4h1q2 0 3 -2q2 0 4 -3q6 -3 13 -16q1 -2 1 -3l1 -5q3 -4 3 -8t-3 -8zM893 562q-2 -7 -8 -9q-6 -7 -19 -8h-4q-63 -1 -126 -1t-127 1h-4q-9 1 -13 4q-20 11 -22 32v12q0 7 4 12
q1 4 3 5q6 10 14 13q4 7 6 7v-3h4q1 0 5 1q65 2 130 2t130 -2q3 -1 5 -1h3v3q2 0 6 -7q5 -1 9 -7q6 -4 8 -11q4 -5 4 -12q1 -4 1 -7t-1 -5q-1 -14 -8 -19zM1066 746q-2 1 -2 9q-7 22 -22 29q-12 0 -61 9q-5 0 -7 1q-11 3 -14 8q-7 3 -10 10q-5 5 -5 9q-3 5 -3 10v4
q0 2 -1 10v7q-6 32 -8 40l-4 12l-1 4q-2 4 -5 13q-6 7 -9 17q-6 7 -9 14q-5 4 -5 6q-5 6 -36 37q-5 1 -7 5q-4 1 -13 8q-12 10 -13 10v-1l4 -3h-1q-22 10 -29 12q-9 4 -10 5h-2q-2 0 -4 1q-12 2 -15 4q-4 0 -16 2q-22 5 -27 5q-2 0 -2 -1l2 -1h-114q-2 -1 -19 -2
q-3 0 -22 -3q-5 -3 -13 -3q0 -1 -1 -1h-2l-4 -1q-1 -1 -11 -5h-1q-1 0 -2 -1q-2 -1 -4 -1q-4 -3 -11 -5q-1 -1 -3 -1q-3 -3 -8 -4q-4 -5 -11 -7q-38 -25 -65 -64q0 -2 -1 -2q-2 -3 -12 -21q-1 -7 -2 -7v1q-11 -13 -11 -15q1 0 6 4q-9 -25 -13 -54l-2 -18v-241l2 -20
q1 -12 7 -35q1 -1 1 -2v-2q5 -17 10 -24q3 -11 4 -11q30 -51 76 -82q-6 2 -8 2q0 -2 24 -11q1 0 3 -1t3 -2q2 -1 14 -6h1q8 -3 14 -6q20 -4 42 -8q17 -1 19 -2h237q3 2 21 2q32 5 63 17l28 15l2 1q34 24 59 57q4 7 8 11q0 3 2 4q0 3 5 10q3 8 7 15q0 1 2 7q8 19 12 47
q6 20 6 25v2q-1 0 -3 -3v156z" />
    <glyph glyph-name="c" unicode="c" horiz-adv-x="1438" 
d="M322 1114q165 162 398 162t398 -162q164 -163 164 -392q0 -230 -164 -392q-165 -163 -398 -163t-398 163q-164 162 -164 392q0 229 164 392zM425 1095v-119q175 -20 263 -70q197 -103 283 -347q21 -154 30 -154h114l10 5q0 161 -84 333q-236 362 -601 362q-15 0 -15 -10z
M425 857v-119q95 -15 139 -35q111 -53 169 -179q22 -119 30 -119h114q10 0 10 10q0 71 -30 159q-146 293 -422 293q-8 0 -10 -10zM425 499q0 -78 94 -94q76 0 95 94q-22 95 -90 95q-99 -14 -99 -95z" />
    <glyph glyph-name="d" unicode="d" horiz-adv-x="1518" 
d="M367 1110q166 164 400 164q235 0 401 -164q165 -164 165 -395t-165 -395q-166 -164 -401 -164q-234 0 -400 164t-166 395t166 395zM1096 625h-5q-11 0 -50 -4v148h51q4 -108 4 -137v-7zM962 835v-281q96 -4 123 -4h7v-31h-130v-63h212v379h-212zM795 621v148h50v-148h-50
zM713 835v-281q99 -4 125 -4h10l-3 -31h-132v-63h214v379h-214zM596 835v-281h82v281h-82zM596 949v-79q61 -4 77 -4q6 0 6 1h-1v82h-82zM428 621l-1 -3v11q0 30 4 140h51v-148h-54zM485 949l-3 -114h-133v-281h212v395h-76z" />
    <glyph glyph-name="e" unicode="e" horiz-adv-x="1438" 
d="M322 1104q164 162 396 162t396 -162t164 -390t-164 -390t-396 -162t-396 162t-164 390t164 390zM731 619q-45 24 -118 70q-82 52 -116 71q126 83 234 145q42 -28 226 -141q-40 -31 -112 -74q-91 -55 -114 -71zM1042 697q-78 63 -78 67q3 0 41 30q72 57 115 100
q-108 67 -226 148h-8q-26 -25 -77 -67q-55 -45 -78 -67q-74 55 -160 134h-11q-13 -10 -222 -148q24 -29 76 -69q59 -45 80 -65q-140 -112 -160 -129q41 -23 117 -75q76 -51 117 -74q24 19 81 68q50 43 82 66q140 -119 163 -134q125 85 226 149q-12 14 -78 66zM961 497
l-71 -44q-23 21 -78 66q-51 42 -77 67q-31 -14 -84 -62q-57 -51 -87 -68q-11 6 -33 21q-21 14 -34 20v-52q32 -18 116 -69q73 -45 118 -68q33 19 114 69q73 44 116 68v52z" />
    <glyph glyph-name="f" unicode="f" horiz-adv-x="1449" 
d="M853 1035h-29q-73 0 -110 -10q-50 -13 -71 -52q-13 -23 -14 -74q-2 -80 -3 -91h-73v-121h76v-349h150q1 0 1 1v213q0 80 3 135l99 1q4 27 7 57q3 29 4 62q0 1 -1 1h-44q-18 -1 -26 -1q-26 0 -42 3q1 6 1 13t-1 21t-1 21q0 13 2 21q2 11 7 17q8 3 18 5q9 1 22 1q8 0 24 -1
h40q1 0 1 1v125zM324 1102q168 166 404 166q237 0 404 -166q167 -165 167 -398t-167 -398t-404 -165q-236 0 -404 165q-167 165 -167 398t167 398z" />
    <glyph glyph-name="g" unicode="g" horiz-adv-x="1479" 
d="M321 1108q166 164 400 164q233 0 399 -164q165 -163 165 -393t-165 -393q-166 -164 -399 -164q-234 0 -400 164q-165 163 -165 393t165 393zM1166 763q-53 7 -68 7l-5 66h-73q-8 -51 -8 -67l-66 -6v-73q53 -7 69 -7l5 -66h73q7 52 7 68l66 5v73zM610 763v-88
q109 -7 138 -7l8 2q-24 -118 -135 -118q-25 0 -55 6q-123 26 -123 156q0 15 2 32q15 150 156 150q9 0 18 -1q47 -3 88 -39q43 25 69 68q-81 65 -165 65q-65 0 -133 -39q-134 -77 -134 -221q0 -19 2 -39q10 -85 74 -150q64 -64 146 -75q27 -4 51 -4q107 0 170 68
q68 73 68 200q0 17 -1 34h-244z" />
    <glyph glyph-name="h" unicode="h" horiz-adv-x="1438" 
d="M327 1112q163 161 395 161q231 0 394 -161q164 -162 164 -389q0 -228 -164 -389q-163 -162 -394 -162q-232 0 -395 162q-163 161 -163 389q0 227 163 389zM734 511q-21 0 -44 2q-102 11 -127 89q-7 21 -7 35q0 27 28 27q11 0 26 -4q14 -5 28 -31q16 -31 24 -38
q21 -20 57 -20q15 0 33 4q54 10 54 48q0 6 -1 13q-4 22 -136 62q-102 31 -102 106q0 104 153 107h9q62 0 100 -25q44 -29 44 -65q0 -7 -1 -13q-7 -30 -32 -30q-8 0 -17 3q-12 3 -31 34q-14 24 -32 32q-17 8 -37 8q-15 0 -33 -5q-42 -11 -42 -41v-1q0 -25 42 -39q5 -1 65 -16
q85 -20 113 -50q26 -28 26 -64q0 -20 -8 -42q-31 -86 -152 -86zM1058 581q-5 28 -11 46q-14 42 -14 67v18q0 136 -97 226q-90 82 -211 82h-6q-44 -1 -44 -2l-14 8q-23 10 -66 18h-29q-151 -22 -173 -173v-29q4 -28 10 -45l16 -32l-2 -49q0 -132 89 -222q91 -90 224 -90
q48 0 48 2l12 -9q23 -10 66 -18h28q152 21 174 174v28z" />
    <glyph glyph-name="i" unicode="i" 
d="M319 1133q165 163 397 163q233 0 397 -163q164 -162 164 -391q0 -228 -164 -390q-164 -163 -397 -163q-232 0 -397 163q-163 162 -164 390q1 229 164 391zM975 337q110 15 119 129q2 31 2 82q0 38 -1 87q-2 69 -2 117q0 35 1 59q-125 -1 -178 -1l-34 1q32 -62 32 -115
q0 -15 -3 -30q-15 -86 -94 -129q-44 -24 -88 -24q-42 0 -85 22q-85 42 -103 130q-3 15 -3 32q0 52 32 114q-57 2 -110 2t-102 -2q-1 -30 -1 -174q0 -156 1 -174q8 -88 101 -120q16 -6 143 -6h373zM1020 894q-6 -6 -57 -6q-49 0 -55 7q-4 5 -4 58q0 51 6 56q3 3 47 4h13
q45 0 51 -6t6 -58q0 -48 -7 -55zM1095 835q-5 94 -5 120v9q-18 99 -118 111h-104q-34 0 -159 2q-49 1 -89 1q-39 0 -69 -1v-183q-21 2 -28 2l-2 181h-19q-1 -1 -1 -3v-180q-21 2 -28 2q-3 0 -3 -1q-2 124 -2 163v13q-4 0 -9 -2q-6 -2 -8 -2v-5q0 -31 -3 -168q-20 2 -26 2
q-3 0 -3 -1v153q-63 -33 -63 -172q0 -20 1 -41h232q-1 -1 25 18q55 41 111 41q53 0 108 -36q31 -21 31 -23h231zM620 699v8q4 87 88 100q11 2 21 2q38 0 67 -25q34 -29 37 -74v-8q0 -68 -64 -96q-25 -11 -48 -11q-38 0 -70 31q-31 30 -31 73zM730 847q-10 0 -22 -1
q-70 -8 -107 -71q-19 -32 -21 -64v-8q0 -66 47 -108q41 -38 98 -38q8 0 16 1q119 10 129 129q1 8 1 15q0 44 -25 82q-43 63 -116 63z" />
    <glyph glyph-name="j" unicode="j" horiz-adv-x="1442" 
d="M322 1111q165 163 399 163t400 -163q165 -163 165 -394q0 -230 -165 -394q-166 -163 -400 -163t-399 163q-165 164 -165 394q0 231 165 394zM686 913q-49 104 -157 104q-10 0 -20 -1q-49 -4 -85 -29q-77 -50 -80 -143v-10q0 -150 151 -173q17 -3 33 -3q76 0 129 61
q45 51 45 119v6q-1 37 -16 69zM1061 935q-54 82 -146 82q-9 0 -19 -1q-75 -7 -122 -63q-43 -51 -43 -115q0 -8 1 -16q7 -95 94 -142q43 -23 85 -23q51 0 99 33q78 54 78 144v11q-2 53 -27 90zM784 465q-23 -13 -39 -13q-26 0 -32 38q-1 4 -1 8q0 23 20 35q11 7 23 7
q13 0 26 -8q0 -2 4 37q-26 13 -48 13q-35 0 -61 -34q-18 -24 -18 -48q0 -26 21 -51q26 -32 63 -32q21 0 44 10q0 29 -2 38zM489 640l1 -16q0 -47 -2 -201h49v217h-48zM1083 575q-9 3 -17 3q-25 0 -43 -30v26h-45q-1 -37 -1 -75t1 -76h50v4q0 107 44 107q4 0 9 -1q1 7 1 21z
M900 574l-43 -62v128h-50v-217h50q2 52 2 68l-1 6q7 -12 20 -37q14 -25 21 -37q41 2 54 2l5 -1l-53 82q7 10 24 34q16 21 24 34h-53zM582 574l1 -11q0 -33 -2 -140h49v4q0 28 1 147h-49zM581 637v-38q35 2 46 2l3 36h-49zM426 574q-2 8 -2 15q0 20 17 20q7 0 18 -4q1 4 2 17
t2 19q-18 4 -33 4q-55 0 -55 -59v-12h-28v-36h21q5 0 8 -1v-114h50v114q3 0 36 1q-2 25 -2 33z" />
    <glyph glyph-name="k" unicode="k" horiz-adv-x="1432" 
d="M318 1105q165 163 398 163q234 0 399 -163q164 -163 164 -393q0 -229 -164 -392q-165 -163 -399 -163q-233 0 -398 163t-165 392q0 230 165 393zM405 1048v-629q15 -75 71 -75q63 0 75 80v88q51 58 58 58q4 -1 75 -102q66 -124 119 -124q61 0 71 75v5q0 26 -155 243v5
l5 8q141 111 141 164v9q-10 66 -57 66q-14 0 -31 -4q-12 0 -226 -217v336q0 89 -75 89q-57 0 -71 -75zM914 663v-18q0 -76 97 -97q111 16 111 101q-14 111 -106 111q-102 -22 -102 -97z" />
    <glyph glyph-name="l" unicode="l" horiz-adv-x="1440" 
d="M320 1104q164 163 397 163q232 0 397 -163q164 -162 164 -391t-164 -391q-165 -163 -397 -163q-233 0 -397 163q-164 162 -164 391t164 391zM559 876l-10 -1q-30 0 -128 2q-1 0 -1 -3v-441h137q2 84 2 221v222zM409 1018v-2q1 -80 73 -80q8 0 17 1q64 7 71 69v10
q0 36 -25 60q-22 21 -53 21q-7 0 -13 -1q-70 -9 -70 -78zM1035 842q-40 46 -118 46h-16q-76 -4 -124 -72v61q-95 -2 -124 -2l-9 1v-442l10 1q30 0 128 -2q2 22 2 60q0 26 -1 60q-1 44 -1 74q0 31 1 49q2 33 12 53q22 42 60 42q19 0 43 -11q38 -17 38 -180v-146q35 -1 70 -1
t70 1q0 -4 1 -4t1 119v112q-1 131 -43 181z" />
    <glyph glyph-name="m" unicode="m" horiz-adv-x="1450" 
d="M324 1109q165 163 398 163t398 -163q164 -163 164 -392t-164 -392q-165 -163 -398 -163t-398 163q-164 163 -164 392t164 392zM734 955q-2 -12 -2 -24q0 -73 80 -92q26 -6 48 -6q87 0 89 104v6q0 113 -100 113q-11 0 -23 -1q-78 -8 -92 -100zM454 867q20 -6 35 -6
q51 0 55 63v5q0 61 -67 67h-9q-61 0 -61 -68q0 -47 47 -61zM557 945v-10q4 -63 57 -77q22 -6 40 -6q61 0 61 74v8q-3 84 -69 84q-16 0 -36 -5q-53 -13 -53 -68zM737 773q-13 53 -82 61q-12 2 -23 2q-51 0 -79 -35q-15 46 -67 46q-12 0 -26 -2q-74 -13 -76 -72v-179h141
q5 -58 5 -69v-2h160v-136q232 7 292 7l14 -2v66q0 187 -10 233q-29 124 -139 124q-19 0 -40 -4q-5 -1 -70 -38z" />
    <glyph glyph-name="n" unicode="n" horiz-adv-x="1446" 
d="M320 1108q166 164 401 164t401 -164q165 -164 165 -395t-165 -395q-166 -164 -401 -164t-401 164q-165 164 -165 395t165 395zM734 923v-365q4 -7 7 -7h321q70 0 104 92v36l-11 28q-35 66 -93 66h-17q-7 0 -33 -6h-2q-5 37 -14 57q-62 121 -185 121q-70 -8 -77 -22z
M697 907q0 -97 -4 -241q4 -70 4 -102q0 -7 9 -13h7q7 3 10 11q0 31 5 90q-4 86 -5 253q0 7 -10 13h-7q-7 -4 -9 -11zM660 890q0 -68 -3 -247q3 -42 3 -77q0 -2 2 -6q-2 0 -2 -2q5 -7 8 -7h7l4 2q5 0 9 104q-4 185 -6 233l-7 6h-7zM549 864l-6 -209q0 -18 2 -18q0 -86 11 -86
h4l7 6l5 98q0 27 -5 208q-5 7 -7 7h-4zM585 859q0 -36 -4 -193l-1 -12q5 -56 5 -94q0 -5 7 -9h6l7 6l6 98l-6 202q-3 7 -11 9zM512 857l-6 -202q0 -23 2 -23q0 -81 11 -81h6q5 0 11 104q-6 174 -8 193q2 0 2 2q-4 11 -9 13h-2zM627 857q-6 0 -9 -196q2 -17 6 -104
q1 -6 11 -6h1l8 6q0 12 5 97l-5 198q-3 7 -13 7zM475 835l-5 -181q0 -13 2 -13q0 -87 9 -90h7q3 3 11 104q-4 49 -7 184q-5 7 -8 7h-3q-4 0 -6 -11zM433 654q0 -11 2 -11q2 -92 11 -92h2q8 0 13 101q0 24 -8 154q-3 5 -5 5h-4q-6 0 -11 -157zM362 655q4 -102 11 -102h1
q7 0 13 99q-5 106 -13 106h-1q-6 0 -11 -103zM325 654q8 -97 13 -97h2q3 2 12 97q-8 102 -14 102t-13 -102zM396 654q8 -79 8 -96q0 -5 3 -5h6q4 0 11 99q-2 36 -4 36q0 65 -9 65h-2q-6 0 -13 -99zM290 655q7 -84 13 -84q4 0 13 84q-8 77 -13 85q-6 0 -13 -85zM259 654
q5 -52 9 -52q7 0 11 52q-4 55 -11 55q-4 0 -9 -55z" />
    <glyph glyph-name="o" unicode="o" horiz-adv-x="1444" 
d="M322 1104q166 164 400 164t400 -164q165 -163 165 -394q0 -230 -165 -394q-166 -164 -400 -164t-400 164q-165 164 -165 394q0 231 165 394zM413 685q-1 12 -1 24q0 66 28 123q79 -207 152 -405q-167 78 -179 258zM839 412q-49 -21 -103 -21q-45 0 -93 15q17 51 47 136
q35 98 48 136q19 -46 51 -133q34 -92 50 -133zM942 726q-2 -19 -27 -98q-16 -53 -28 -96q-3 5 -30 84q-78 225 -86 251q46 4 46 17v2q-2 8 -29 8q-8 0 -19 -1q-30 -1 -57 -1t-50 1q-9 1 -16 1q-26 0 -26 -11v-1q0 -8 45 -15l-1 4l52 -138q-72 -213 -72 -211l2 7
q-41 113 -117 338q47 7 48 12v2q0 11 -36 11h-16q-24 -1 -66 -1q87 130 242 141q14 1 27 1q120 0 211 -82h-2q-29 0 -44 -25q-9 -15 -9 -32q0 -12 5 -26q53 -141 53 -142zM905 442q19 58 52 148q42 115 54 148q15 44 15 93q0 13 -1 26h1v-1q38 -68 38 -145q0 -10 -1 -21
q-10 -162 -158 -248zM1107 729q-12 144 -110 242t-241 110h-46q-143 -12 -241 -110q-100 -100 -110 -242v-45q12 -144 110 -242t241 -110h46q143 12 241 110t110 242v45z" />
    <glyph glyph-name="p" unicode="p" 
d="M322 1095q165 163 399 163t399 -163t165 -393t-165 -394q-165 -163 -399 -163t-399 163q-165 164 -165 394t165 393zM730 1071q-149 0 -256 -98q-105 -97 -116 -240q-1 -19 -1 -37q0 -231 235 -346q-2 14 -2 31q0 60 22 149q25 105 25 110q0 8 -6 28q-5 20 -5 31
q2 90 66 90h7q44 -2 44 -49q0 -16 -5 -36l-28 -118q6 -34 40 -42q12 -3 23 -3q52 0 87 62q32 58 32 108q0 62 -49 112q-38 39 -106 42h-12q-55 0 -93 -25q-58 -37 -69 -110q-2 -15 -2 -29q0 -52 31 -92q-4 -6 -7 -27q-4 -18 -10 -24q-78 42 -84 136q-1 9 -1 17q0 88 66 152
q72 70 183 70q92 0 158 -57q67 -58 73 -146q1 -12 1 -23q0 -117 -86 -185q-55 -44 -104 -44q-37 0 -71 24q-22 15 -22 17q-27 -119 -68 -181q63 -17 121 -17q147 0 257 113q94 97 104 229q1 18 1 35q0 147 -97 254q-108 119 -276 119z" />
    <glyph glyph-name="q" unicode="q" horiz-adv-x="1415" 
d="M308 1102q162 160 392 160q229 0 392 -160q161 -160 161 -386t-161 -386q-163 -161 -392 -161q-230 0 -392 161q-162 160 -162 386t162 386zM837 861q-84 5 -119 5l2 145h-88q-22 -131 -118 -161v-77q42 -6 55 -6q5 0 5 1v-37q0 -30 -2 -71q-1 -28 -1 -49q0 -29 2 -47
q12 -96 105 -129q34 -12 67 -12q55 0 107 34q-7 21 -30 85q-27 -13 -47 -13q-45 0 -55 67q0 3 3 177h114v88z" />
    <glyph glyph-name="r" unicode="r" horiz-adv-x="1465" 
d="M325 1120q168 165 405 165q238 0 405 -165q168 -166 168 -400q0 -233 -168 -399q-167 -166 -405 -166q-237 0 -405 166q-167 166 -167 399q0 234 167 400zM539 706q0 42 59 46h6q40 0 52 -36q5 -16 5 -28q0 -36 -42 -47q-14 -4 -25 -4q-35 0 -48 36q-7 19 -7 33zM730 492
q-46 0 -93 18q-24 9 -41 25q-9 8 -9 15q0 8 17 12q56 -47 121 -47q50 0 104 28q29 15 40 15q4 0 6 -2v-3q0 -22 -48 -41q-48 -20 -97 -20zM861 636q-22 0 -40 16q-19 16 -19 40q0 11 4 24q11 33 52 36h5q44 0 54 -48q2 -10 2 -19q0 -35 -38 -46q-10 -3 -20 -3zM969 814
q-71 57 -219 73q34 159 38 173q18 -3 60 -12q39 -9 60 -13q9 -58 57 -58q9 0 19 2q44 8 44 51q0 8 -2 18q-9 51 -55 51q-7 0 -15 -1q-11 -2 -25 -16t-20 -15h-1q-5 0 -72 14q-63 13 -70 13h-1q-8 -4 -17 -48q-33 -158 -33 -161q-90 -1 -178 -44l-47 -24q0 1 -13 10
q-23 14 -45 14q-31 0 -58 -29t-27 -59q0 -21 13 -43v1q2 0 38 -36q-1 -10 -1 -20q0 -106 111 -176q98 -61 212 -61q68 0 141 21q200 59 200 227v11q48 21 48 66q0 17 -6 36q-19 60 -72 60q-13 0 -29 -4q-12 -3 -35 -21z" />
    <glyph glyph-name="s" unicode="s" horiz-adv-x="1420" 
d="M314 1108q163 161 394 161q230 0 394 -161q162 -161 162 -388t-162 -388q-164 -161 -394 -161q-231 0 -394 161t-163 388t163 388zM1034 563q-124 47 -144 137q8 10 49 25q32 12 32 32v2q-1 18 -77 18h-8q7 40 7 74q0 157 -154 173q-19 2 -36 2q-128 0 -163 -113
q-5 -15 -5 -44q0 -12 1 -27v-16q0 -35 -7 -53q-27 8 -44 8q-28 0 -30 -22v-1q0 -18 35 -31q39 -14 43 -31q1 -7 1 -13q0 -53 -90 -98q-55 -27 -55 -29v-2q0 -27 85 -39q21 -38 21 -44l3 1q29 0 167 -49q17 -6 36 -6q43 0 95 30t96 30q21 0 39 -6q7 4 11 22t11 22
q81 22 81 48z" />
    <glyph glyph-name="t" unicode="t" horiz-adv-x="1488" 
d="M338 1102q168 166 407 166t407 -166q169 -167 169 -402t-169 -401q-168 -167 -407 -167t-407 167q-169 166 -169 401t169 402zM1153 924q-41 -19 -87 -24l4 3q46 32 63 82q-49 -25 -84 -33l-14 -4q0 2 -21 18q-37 29 -87 32h-15q-72 -6 -115 -59q-35 -43 -35 -95
q0 -19 4 -39q-194 14 -323 164q-23 -35 -23 -75q0 -23 8 -48q15 -52 62 -86q-36 1 -70 19q7 -123 125 -155q-16 -7 -36 -7q-15 0 -33 4q35 -101 145 -109q0 -2 -9 -8q-83 -59 -183 -59q-19 0 -38 2q111 -70 234 -70q136 0 241 64q91 56 149 157q61 105 61 225v18q0 1 21 19
q36 31 56 64z" />
    <glyph glyph-name="u" unicode="u" horiz-adv-x="1442" 
d="M326 1103q164 161 395 161q232 0 396 -161q163 -162 164 -390q-1 -229 -164 -390q-164 -162 -396 -162q-231 0 -395 162q-164 161 -164 390q0 228 164 390zM981 631q-28 28 -30 39v3q0 11 12 29q10 15 44 60q28 36 43 61q21 36 21 53q0 4 -1 7q-5 11 -29 11h-4
q-41 -1 -86 -1q-39 0 -43 -2q-9 -3 -16 -22q-17 -43 -38 -79q-29 -48 -47 -68q-14 -15 -24 -15h-1q-15 1 -18 35q-1 7 -1 20q0 28 3 84v9q0 29 -6 39q-12 20 -86 20q-13 0 -28 -1q-61 -3 -69 -30q29 -8 36 -21q10 -17 10 -83q0 -24 -3 -43q-5 -28 -18 -30h-3q-10 0 -22 13
q-7 8 -17 22q-37 53 -67 123q-9 19 -14 24q-9 6 -49 6h-36q-58 0 -62 -11q-1 -1 -1 -4q0 -9 12 -34q62 -134 129 -224q50 -67 105 -97q58 -32 113 -32h6q57 2 63 10q3 3 6 35q2 19 7 31q8 20 22 21h2q14 0 33 -21q2 -2 26 -30q34 -39 65 -46q5 -1 48 -1h20l21 1q58 0 62 20
q1 2 1 4q0 15 -23 44q-14 18 -68 71z" />
    <glyph glyph-name="v" unicode="v" horiz-adv-x="1456" 
d="M319 1115q166 164 401 164t401 -164q165 -164 166 -395q-1 -231 -166 -395q-166 -164 -401 -164t-401 164q-165 164 -165 395t165 395zM826 953q-41 -38 -65 -104h6q66 0 79 -21q9 -14 9 -38q0 -10 -1 -21q-4 -37 -37 -97q-37 -67 -64 -69h-4q-28 0 -49 36q-1 2 -38 193
q-33 168 -104 168q-6 0 -11 -1q-40 -6 -120 -75q-18 -15 -51 -43t-48 -41l14 -17q11 -16 16 -17q3 -1 7 -1q13 0 34 8q17 6 30 6q7 0 13 -2q18 -6 51 -106q13 -38 34 -125q19 -77 36 -123q29 -75 71 -89q12 -4 26 -4q12 0 26 3q59 11 141 89q111 105 189 273q55 119 63 168
q3 16 3 29q0 88 -104 88q-9 0 -18 -1q-67 -4 -134 -66z" />
    <glyph glyph-name="w" unicode="w" horiz-adv-x="1442" 
d="M328 1120q164 162 396 162q233 0 397 -162t164 -391t-164 -391t-397 -162q-232 0 -396 162t-164 391t164 391zM864 484q-59 -26 -124 -26q-16 0 -33 2q-63 7 -134 49l-117 -37q3 8 28 83l10 28q-1 0 -19 33q-31 55 -37 116q-2 18 -2 36q0 149 129 243q69 50 153 55
q12 1 24 1q142 0 234 -109q75 -87 75 -190q0 -44 -14 -91q-41 -134 -173 -193zM1107 785q-13 140 -107 234q-92 92 -235 105h-45q-150 -15 -239 -111q-102 -109 -104 -247q0 -85 43 -170q5 -11 5 -22t-4 -22q-59 -170 -59 -172l2 5q1 -3 3 -3q37 13 99 33q81 25 100 31
q90 -45 175 -45h11q101 4 179 52q157 97 176 287v45zM885 702q-38 19 -46 19h-1q-5 0 -23 -23q-17 -22 -24 -23h-1q-11 0 -43 18q-35 20 -66 59q-24 31 -24 39q0 1 17 22q13 15 13 25q0 4 -18 46q-17 38 -22 41q-8 4 -17 4t-19 -3q-46 -12 -46 -83q0 -41 42 -102
q60 -84 130 -117q53 -25 93 -31h9q22 0 47 12q41 21 41 64q0 5 -1 10q-8 7 -41 23z" />
    <glyph glyph-name="x" unicode="x" horiz-adv-x="1479" 
d="M336 1107q167 165 403 165t403 -165q167 -164 167 -397q0 -232 -167 -397q-167 -164 -403 -164t-403 164q-166 165 -166 397q0 233 166 397zM814 1087q-119 -55 -119 -199q0 -177 147 -265q-58 -109 -136 -193h-5q-145 197 -170 368q-38 181 -46 181h-113l-11 -6
q34 -254 108 -407q133 -266 232 -266q105 24 260 289q96 11 96 28v73l-6 12l-11 -6h-57q-125 0 -158 159v50q9 74 51 74q51 -11 51 -68v-34q0 -22 -11 -73q0 -21 67 -40h40q23 0 34 124v57q-27 153 -175 153q-29 0 -68 -11z" />
    <glyph glyph-name="y" unicode="y" horiz-adv-x="1432" 
d="M325 1113q164 162 396 162t396 -162q163 -161 163 -390q0 -228 -163 -390q-164 -162 -396 -162t-396 162t-164 390q0 229 164 390zM865 721q-35 -20 -99 -53q-72 -37 -99 -52l1 5q0 38 -3 203q33 -16 100 -52q65 -34 100 -51zM1112 707q0 172 -27 215q-24 40 -206 48
q-71 3 -126 3q-33 0 -60 -1q-18 -1 -60 -1t-64 -1q-101 -5 -114 -8q-84 -21 -84 -251q0 -176 33 -216q28 -35 157 -40q108 -4 196 -4q74 0 134 3q133 6 152 13q69 27 69 240z" />
    <glyph glyph-name="z" unicode="z" horiz-adv-x="1460" 
d="M329 1118q166 164 402 164q235 0 401 -164t166 -396q0 -231 -166 -395t-401 -164q-236 0 -402 164t-166 395q0 232 166 396zM565 1085q-22 -3 -34 -81q-89 -554 -89 -553v-13q5 -14 87 -14h76q6 33 18 115q12 75 20 115q-1 0 -2 2q12 69 32 196q8 54 15 60q8 7 87 7
q199 0 235 -24h1v1q3 21 3 39q0 140 -182 150h-267zM1089 759q-3 72 -61 104l-2 2v-8q0 -51 -33 -108q-13 -23 -57 -65q-36 -34 -99 -44q0 1 -6 1q-23 0 -138 -8q-37 -3 -38 -25l3 1q-9 -39 -19 -109q-11 -76 -18 -109q2 -82 3 -83h132q19 6 29 67q1 8 4 25q2 16 4 25
q14 86 33 89q27 2 35 2q1 -1 3 -1q207 8 225 223v21z" />
    <glyph glyph-name="exclam" unicode="!" horiz-adv-x="1460" 
d="M163 722q0 -231 166 -395t402 -164q235 0 401 164t166 395q0 232 -166 396t-401 164q-236 0 -402 -164t-166 -396zM223 220q-210 208 -210 502q0 295 210 503q210 207 508 207q297 0 507 -207q210 -208 210 -503q0 -294 -210 -502t-507 -208q-298 0 -508 208zM1089 738
q-18 -215 -225 -223q-2 0 -3 1q-8 0 -35 -2q-19 -3 -33 -89q-2 -9 -4 -25q-3 -17 -4 -25q-10 -61 -29 -67h-132q-1 1 -3 83q7 33 18 109q10 70 19 109l-3 -1q1 22 38 25q115 8 138 8q6 0 6 -1q63 10 99 44q44 42 57 65q33 57 33 108v8l2 -2q58 -32 61 -104v-21zM1011 899
q1 0 2 -1l1 -4v-5q0 -51 -36 -114q-14 -24 -59 -68q-35 -34 -105 -47q-1 1 -7 1q-24 0 -145 -8l-21 -8q-7 -39 -18 -106q-12 -82 -18 -115h-76q-82 0 -87 14v13q0 -1 89 553q12 78 34 81h267q182 -10 182 -150q0 -17 -3 -36z" />
    <glyph glyph-name="quotedbl" unicode="&#x22;" horiz-adv-x="1460" 
d="M329 1118q166 164 402 164q235 0 401 -164t166 -396q0 -231 -166 -395t-401 -164q-236 0 -402 164t-166 395q0 232 166 396zM1089 759q-3 72 -61 104l-2 2v-8q0 -51 -33 -108q-13 -23 -57 -65q-36 -34 -99 -44q0 1 -6 1q-23 0 -138 -8q-37 -3 -38 -25l3 1
q-9 -39 -19 -109q-11 -76 -18 -109q2 -82 3 -83h132q19 6 29 67q1 8 4 25q2 16 4 25q14 86 33 89q27 2 35 2q1 -1 3 -1q207 8 225 223v21zM1014 935q0 140 -182 150h-267q-22 -3 -34 -81q-89 -554 -89 -553v-13q5 -14 87 -14h76q6 33 18 115q11 67 18 106l21 8q121 8 145 8
q6 0 7 -1q70 13 105 47q45 44 59 68q36 63 36 114v5l-1 4q-1 1 -2 1q3 19 3 36z" />
    <glyph glyph-name="numbersign" unicode="#" 
d="M155 712q1 -228 164 -390q165 -163 397 -163q233 0 397 163q164 162 164 390q0 229 -164 391q-164 163 -397 163q-232 0 -397 -163q-163 -162 -164 -391zM215 216q-208 205 -208 496q0 292 208 497t501 205q294 0 501 -205q208 -205 208 -497q0 -291 -208 -496
q-207 -205 -501 -205q-293 0 -501 205zM606 1095h207q162 0 212 -51q50 -43 63 -84q21 -43 21 -161v-207q0 -162 -51 -212q-43 -50 -84 -63q-43 -21 -161 -21h-207q-162 0 -212 51q-50 43 -63 84q-21 43 -21 161v207q0 162 51 212q43 50 84 63q43 21 161 21zM599 1021h-14
q-116 0 -154 -42q-47 -37 -47 -159v-14q0 -4 -2 -7q0 -2 2 -2l-2 -9v-185q0 -4 2 -7q0 -2 -2 -2l2 -9v-14q0 -116 42 -154q37 -47 159 -47h14q4 0 7 -2q2 0 2 2l9 -2h185q4 0 7 2q2 0 2 -2l9 2h14q116 0 154 42q47 37 47 159v14q0 4 2 7q0 2 -2 2l2 9v185q0 4 -2 7q0 2 2 2
l-2 9v14q0 116 -42 154q-37 47 -159 47h-14q-4 0 -7 2q-2 0 -2 -2l-9 2h-185q-4 0 -7 -2q-2 0 -2 2zM916 957h13q42 -10 42 -42v-13q0 -35 -49 -42q-41 0 -48 51q9 46 42 46zM702 902l4 -1l4 1l3 -1q2 0 2 1q92 0 163 -87q38 -61 38 -112l-1 -4l1 -3l-1 -4q0 -2 1 -2
q0 -92 -87 -163q-58 -38 -119 -38q-108 0 -176 98q-31 57 -31 101l1 4l-1 4l1 3q0 2 -1 2q0 92 87 163q61 38 112 38zM576 696q0 -89 97 -128q18 -4 37 -6q88 0 127 97q6 28 6 37q0 88 -97 127q-27 6 -36 6q-89 0 -128 -97q-6 -28 -6 -36z" />
    <glyph glyph-name="dollar" unicode="$" 
d="M319 1103q165 163 397 163q233 0 397 -163q164 -162 164 -391q0 -228 -164 -390q-164 -163 -397 -163q-232 0 -397 163q-163 162 -164 390q1 229 164 391zM475 1051q-38 -12 -78 -59q-47 -46 -47 -196v-191q0 -109 19 -149q12 -38 59 -78q46 -47 196 -47h191
q109 0 149 19q38 12 78 59q47 46 47 196v191q0 109 -19 149q-12 38 -59 78q-46 47 -196 47h-191q-109 0 -149 -19zM626 1004q0 -2 1 -2q3 2 7 2h171l8 -2q0 2 2 2q3 -2 7 -2h13q112 0 147 -44q39 -35 39 -142v-13l2 -9q-2 0 -2 -1q2 -3 2 -7v-171l-2 -8q2 0 2 -2
q-2 -3 -2 -7v-13q0 -112 -44 -147q-35 -39 -142 -39h-13l-9 -2q0 2 -1 2q-3 -2 -7 -2h-171l-8 2q0 -2 -2 -2q-3 2 -7 2h-13q-112 0 -147 44q-39 35 -39 142v13l-2 9q2 0 2 1q-2 3 -2 7v171l2 8q-2 0 -2 2q2 3 2 7v13q0 112 44 147q35 39 142 39h13zM872 900q6 -47 44 -47
q45 7 45 39v11q0 30 -39 39h-11q-31 0 -39 -42zM609 856q-81 -65 -81 -151q2 0 2 -1l-2 -3l2 -4l-2 -3q0 -41 29 -94q64 -91 163 -91q56 0 110 36q81 65 81 151q-2 0 -2 1l2 4l-2 3l2 3q0 48 -36 104q-65 81 -151 81q0 -2 -1 -2l-3 2l-4 -2l-3 2q-48 0 -104 -36zM601 735
q36 89 119 89q8 0 34 -5q89 -36 89 -118q0 -8 -5 -35q-36 -89 -118 -89q-18 2 -35 5q-89 36 -89 119q0 7 5 34z" />
    <glyph glyph-name="percent" unicode="%" 
d="M155 712q1 -228 164 -390q165 -163 397 -163q233 0 397 163q164 162 164 390q0 229 -164 391q-164 163 -397 163q-232 0 -397 -163q-163 -162 -164 -391zM215 216q-208 205 -208 496q0 292 208 497t501 205q294 0 501 -205q208 -205 208 -497q0 -291 -208 -496
q-207 -205 -501 -205q-293 0 -501 205zM371 923q-6 4 -8 11l-1 -440l253 228zM732 695l284 248h-587zM1074 924l-219 -191l229 -224v425h-3q-2 -6 -7 -10zM750 640q-7 -6 -17 -6t-17 6l-61 51l-256 -230h663l-243 239zM1136 456q-8 -35 -42 -48h-742q-42 0 -42 43v493
q0 43 42 43h742q42 0 42 -43v-488z" />
    <glyph glyph-name="ampersand" unicode="&#x26;" 
d="M319 1103q165 163 397 163q233 0 397 -163q164 -162 164 -391q0 -228 -164 -390q-164 -163 -397 -163q-232 0 -397 163q-163 162 -164 390q1 229 164 391zM615 722l-253 -228l1 440q2 -7 8 -11zM429 943h587l-284 -248zM1081 934h3v-425l-229 224l219 191q5 4 7 10z
M819 700l243 -239h-663l256 230l61 -51q7 -6 17 -6t17 6zM1136 944q0 43 -42 43h-742q-42 0 -42 -43v-493q0 -43 42 -43h742q34 13 42 48v488z" />
    <glyph glyph-name="quotesingle" unicode="'" 
d="M155 712q1 -228 164 -390q165 -163 397 -163q233 0 397 163q164 162 164 390q0 229 -164 391q-164 163 -397 163q-232 0 -397 -163q-163 -162 -164 -391zM215 216q-208 205 -208 496q0 292 208 497t501 205q294 0 501 -205q208 -205 208 -497q0 -291 -208 -496
q-207 -205 -501 -205q-293 0 -501 205zM391 917h213q103 0 125 -89q2 -15 2 -24q0 -59 -51 -88q64 -26 64 -101v-2q0 -86 -89 -121q-34 -9 -103 -9h-161q-3 0 -3 4v427q1 3 3 3zM828 893h184q4 0 4 -3v-39q0 -3 -4 -3h-184q-3 0 -3 3v39q1 3 3 3zM476 841v-94h84q69 0 79 25
q4 15 4 22v1q0 46 -64 46h-103zM926 814q131 0 157 -133q2 -16 2 -31v-27q0 -3 -3 -3h-230q0 -59 59 -76q12 -2 20 -2q44 0 65 37h81q3 0 3 -5q0 -31 -56 -76q-38 -25 -98 -25q-84 0 -135 68q-23 39 -23 87v26q0 104 91 147q32 13 67 13zM855 677h142q0 44 -47 63
q-13 3 -24 3q-51 0 -67 -49q-4 -12 -4 -17zM476 674v-113h113q62 0 62 57v5q0 51 -69 51h-106z" />
    <glyph glyph-name="parenleft" unicode="(" 
d="M155 712q1 -228 164 -390q165 -163 397 -163q233 0 397 163q164 162 164 390q0 229 -164 391q-164 163 -397 163q-232 0 -397 -163q-163 -162 -164 -391zM391 917h213q103 0 125 -89q2 -15 2 -24q0 -59 -51 -88q64 -26 64 -101v-2q0 -86 -89 -121q-34 -9 -103 -9h-161
q-3 0 -3 4v427q1 3 3 3zM828 893h184q4 0 4 -3v-39q0 -3 -4 -3h-184q-3 0 -3 3v39q1 3 3 3zM476 841v-94h84q69 0 79 25q4 15 4 22v1q0 46 -64 46h-103zM926 814q131 0 157 -133q2 -16 2 -31v-27q0 -3 -3 -3h-230q0 -59 59 -76q12 -2 20 -2q44 0 65 37h81q3 0 3 -5
q0 -31 -56 -76q-38 -25 -98 -25q-84 0 -135 68q-23 39 -23 87v26q0 104 91 147q32 13 67 13zM855 677h142q0 44 -47 63q-13 3 -24 3q-51 0 -67 -49q-4 -12 -4 -17zM476 674v-113h113q62 0 62 57v5q0 51 -69 51h-106z" />
    <glyph glyph-name="parenright" unicode=")" 
d="M352 461q5 -8 9 -8h3q5 0 5 6q-4 8 -8 8h-3q-5 0 -6 -6zM518 342v-3q4 -9 8 -9h9q8 5 8 9v3q0 4 -11 8q-14 -2 -14 -8zM563 347v-5q0 -6 6 -6h11q9 4 9 9v2q-5 9 -9 9q-14 0 -17 -9zM469 350v-3q1 -5 14 -11q12 4 12 9v2q-5 9 -9 9h-11q-5 0 -6 -6zM429 376v-6
q1 -6 14 -11q9 4 9 8v3q-7 12 -11 12h-6q-5 0 -6 -6zM401 410v-6q4 -8 8 -8h6q6 0 6 6v2q-7 12 -12 12h-3q-4 0 -5 -6zM378 441v-5q0 -5 11 -9q6 0 6 6v6q-4 8 -9 8h-2q-5 0 -6 -6zM890 185q124 38 223 137q164 162 164 390q0 229 -164 391q-164 163 -397 163
q-232 0 -397 -163q-163 -162 -164 -391q1 -228 164 -390q120 -118 274 -151q-1 71 -1 97v17l-3 5q-38 -5 -63 -5h-17l-142 122q0 7 -66 63v8q2 0 20 6q40 0 80 -37q55 -88 108 -88h28q15 0 55 11q13 57 37 80v6q-40 0 -109 22q-162 62 -162 271q0 88 63 154q-12 42 -12 66
q0 82 26 96q57 0 157 -62q82 20 148 20q69 0 151 -20q100 62 154 62q23 0 28 -91q0 -35 -11 -68q62 -72 62 -160q-2 -5 -2 -11v-6q0 -141 -97 -219q-61 -40 -174 -57q40 -35 40 -128v-77q0 -17 -1 -63zM215 216q-208 205 -208 496q0 292 208 497t501 205q294 0 501 -205
q208 -205 208 -497q0 -291 -208 -496q-207 -205 -501 -205q-293 0 -501 205z" />
    <glyph glyph-name="asterisk" unicode="*" 
d="M890 185q124 39 223 137q164 162 164 390q0 229 -164 391q-164 163 -397 163q-232 0 -397 -163q-163 -162 -164 -391q1 -228 164 -390q119 -118 274 -151q-1 72 -1 97v17l-3 5q-38 -5 -63 -5h-17l-142 122q0 7 -66 63v8q2 0 20 6q40 0 80 -37q55 -88 108 -88h28
q15 0 55 11q13 57 37 80v6q-40 0 -109 22q-162 62 -162 271q0 88 63 154q-12 42 -12 66q0 82 26 96q57 0 157 -62q82 20 148 20q69 0 151 -20q100 62 154 62q23 0 28 -91q0 -35 -11 -68q62 -72 62 -160q-2 -5 -2 -11v-6q0 -141 -97 -219q-61 -40 -174 -57q40 -35 40 -128
v-77q0 -15 -1 -63zM518 342v-3q4 -9 8 -9h9q8 5 8 9v3q0 4 -11 8q-14 -2 -14 -8zM563 347v-5q0 -6 6 -6h11q9 4 9 9v2q-5 9 -9 9q-14 0 -17 -9zM469 350v-3q1 -5 14 -11q12 4 12 9v2q-5 9 -9 9h-11q-5 0 -6 -6zM429 376v-6q1 -6 14 -11q9 4 9 8v3q-7 12 -11 12h-6
q-5 0 -6 -6zM401 410v-6q4 -8 8 -8h6q6 0 6 6v2q-7 12 -12 12h-3q-4 0 -5 -6zM378 441v-5q0 -5 11 -9q6 0 6 6v6q-4 8 -9 8h-2q-5 0 -6 -6zM352 461q5 -8 9 -8h3q5 0 5 6q-4 8 -8 8h-3q-5 0 -6 -6z" />
    <glyph glyph-name="plus" unicode="+" 
d="M155 712q1 -228 164 -390q165 -163 397 -163q233 0 397 163q164 162 164 390q0 229 -164 391q-164 163 -397 163q-232 0 -397 -163q-163 -162 -164 -391zM215 216q-208 205 -208 496q0 292 208 497t501 205q294 0 501 -205q208 -205 208 -497q0 -291 -208 -496
q-207 -205 -501 -205q-293 0 -501 205zM833 1108h139q7 -1 7 -7v-136q-20 -52 -146 -287q10 0 10 -13h129q7 -1 7 -7v-191q0 -7 -7 -7h-238q-22 0 -72 -112q-32 -56 -41 -58h-146q-7 0 -7 7v136q9 30 150 283v3q0 6 -14 14h-129q-7 0 -7 7v190q1 7 7 7h235q33 0 75 102
q30 58 48 69z" />
    <glyph glyph-name="comma" unicode="," 
d="M155 712q1 -228 164 -390q165 -163 397 -163q233 0 397 163q164 162 164 390q0 229 -164 391q-164 163 -397 163q-232 0 -397 -163q-163 -162 -164 -391zM833 1108h139q7 -1 7 -7v-136q-20 -52 -146 -287q10 0 10 -13h129q7 -1 7 -7v-191q0 -7 -7 -7h-238q-22 0 -72 -112
q-32 -56 -41 -58h-146q-7 0 -7 7v136q9 30 150 283v3q0 6 -14 14h-129q-7 0 -7 7v190q1 7 7 7h235q33 0 75 102q30 58 48 69z" />
    <glyph glyph-name="hyphen" unicode="-" 
d="M155 712q1 -228 164 -390q165 -163 397 -163q233 0 397 163q164 162 164 390q0 229 -164 391q-164 163 -397 163q-232 0 -397 -163q-163 -162 -164 -391zM215 216q-208 205 -208 496q0 292 208 497t501 205q294 0 501 -205q208 -205 208 -497q0 -291 -208 -496
q-207 -205 -501 -205q-293 0 -501 205zM769 1110h23q50 0 85 -130h4q71 27 90 27h18q59 -15 59 -59v-22q0 -50 -126 -81v-5q49 -157 58 -157q97 32 104 32q67 -16 67 -63v-14q0 -62 -130 -89q31 -98 31 -104q-12 -72 -72 -72q-68 0 -94 131q-109 -36 -162 -59
q32 -94 32 -108q0 -55 -72 -67q-66 0 -94 130h-5q-77 -27 -108 -27q-53 0 -63 77q0 54 131 90q-9 10 -54 161q-85 -31 -104 -31h-9q-67 0 -67 76q0 57 130 85l-27 104v4q8 68 68 68h13q55 0 81 -126h5q5 0 161 54q-31 84 -31 103v14q15 58 58 58zM625 742q50 -149 50 -158
q9 0 166 50q-51 162 -58 166q-143 -49 -158 -58z" />
    <glyph glyph-name="period" unicode="." 
d="M155 712q1 -228 164 -390q165 -163 397 -163q233 0 397 163q164 162 164 390q0 229 -164 391q-164 163 -397 163q-232 0 -397 -163q-163 -162 -164 -391zM769 1110h23q50 0 85 -130h4q71 27 90 27h18q59 -15 59 -59v-22q0 -50 -126 -81v-5q49 -157 58 -157q97 32 104 32
q67 -16 67 -63v-14q0 -62 -130 -89q31 -98 31 -104q-12 -72 -72 -72q-68 0 -94 131q-109 -36 -162 -59q32 -94 32 -108q0 -55 -72 -67q-66 0 -94 130h-5q-77 -27 -108 -27q-53 0 -63 77q0 54 131 90q-9 10 -54 161q-85 -31 -104 -31h-9q-67 0 -67 76q0 57 130 85l-27 104v4
q8 68 68 68h13q55 0 81 -126h5q5 0 161 54q-31 84 -31 103v14q15 58 58 58zM625 742q50 -149 50 -158q9 0 166 50q-51 162 -58 166q-143 -49 -158 -58z" />
    <glyph glyph-name="colon" unicode=":" 
d="M155 712q1 -228 164 -390q165 -163 397 -163q233 0 397 163q164 162 164 390q0 229 -164 391q-164 163 -397 163q-232 0 -397 -163q-163 -162 -164 -391zM215 216q-208 205 -208 496q0 292 208 497t501 205q294 0 501 -205q208 -205 208 -497q0 -291 -208 -496
q-207 -205 -501 -205q-293 0 -501 205zM718 1061h1q18 0 28 -21q2 -10 2 -12q0 -10 -12 -28h1q10 3 24 6v-1q3 1 4 1v0q4 1 6 1v-1q1 1 7 2v-1q3 1 15 1q14 0 14 -1l1 1q5 -1 5 -2q1 0 1 1q35 -3 76 -29q43 -32 43 -52q0 -17 -16 -27q0 -1 19 -19q1 -2 21 -24q11 -19 13 -20
q5 7 10 32q1 6 2 7q0 1 -1 1l1 7v0v5v7v6v1q0 1 -1 5q0 1 1 1q0 11 -18 57q-1 5 -1 9q0 16 21 32q13 5 18 5h1h3h2h1q12 0 35 -22q25 -35 38 -62q14 -31 22 -69q0 -1 3 -17v0q0 -1 1 -7h-1q1 0 2 -10q0 -1 -1 -1l1 -3v-14q0 -2 -1 -6l1 -1q-1 -9 -2 -10l1 -1q0 -6 -1 -6v0
q-1 -16 -2 -16v-1q-1 -11 -2 -11v-2q-6 -35 -22 -67q-7 -23 -47 -71q-37 -36 -59 -49q0 -7 -16 -18v-4q0 -26 -15 -68q-16 -34 -22 -38q-9 -6 -18 -7v1q-6 0 -7 -9q-22 -61 -68 -94q-23 -14 -33 -14h-6q-29 -43 -81 -61q-24 -6 -27 -6h-2q-14 0 -26 20q-2 4 -3 23
q-2 7 -15 20h-6q-25 3 -55 24q-27 24 -37 43q-7 15 -12 28q-23 0 -54 75q-5 19 -11 42q-5 0 -14 13q-6 12 -11 38q-42 23 -85 87q-29 55 -29 70q-4 6 -10 52h1q-1 3 -1 7v0q0 1 -1 9q0 1 1 1l-1 5v13q0 3 1 8q-1 1 -1 2l1 7v2q0 4 1 4q0 1 -1 1q6 29 13 53q19 55 55 99
q20 18 31 18h1h2h2h2q4 0 4 -1v1q11 -1 26 -16q8 -12 8 -23q0 -8 -8 -28q-5 -13 -9 -30v-1q0 -4 -1 -4h1l-2 -6q0 -1 1 -1l-1 -4v-12l1 -4l-1 -1l2 -4l-1 -2q1 -3 1 -4v0q5 -29 14 -44q1 0 17 21q14 17 28 27q0 1 -14 5q-18 11 -18 29v2q0 20 34 34q28 13 52 14v0q4 1 14 1
q11 0 11 -1h2q10 0 10 -2l1 1q3 0 3 -1h1h3q9 28 34 54q36 35 77 48q4 2 9 2zM623 918h-1l-27 9q-1 0 -1 -1q-7 1 -7 2l-2 -1q-4 1 -4 2q-1 0 -1 -1l-8 1h-9l-7 -1v1q-1 -1 -10 -2v0q-25 -6 -38 -13q-8 -5 -8 -6q19 -1 47 -25l9 -11v-1q-2 -1 -14 -6q-19 -8 -46 -36
q-30 -36 -40 -78h1q34 23 43 23h1v0q-32 -44 -41 -101l1 -1l-1 -4v-1l-1 -6q0 -1 1 -1l-1 -9v-5v-6v-7v-4q0 -6 1 -8l-1 -1q1 -4 1 -6v-1l1 -4l-1 -1q2 -3 2 -4h-1q5 -26 12 -51h2q6 24 16 42q3 4 4 4q-1 -8 -1 -9v0q-1 -5 -2 -17h1l-1 -4v-14q0 -2 1 -6l-1 -1q1 -6 2 -7
q0 -1 -1 -1q3 -41 26 -84q5 -9 13 -19q0 19 11 48v0l1 -2v-4q0 -26 15 -69q20 -47 59 -63l14 -5q-1 7 -1 10v2q0 21 5 36h1q0 -39 31 -67q16 -20 16 -43h3v0q22 5 40 15q34 25 51 57q10 21 18 46v0q6 -9 6 -26v-1q0 -12 -4 -25q48 22 73 90q15 47 15 77h-1l1 4v11h1
q15 -57 15 -66h1q11 19 18 42q9 39 9 54q0 1 -1 1q2 7 2 19q0 11 -2 19l1 1l-3 31q7 -9 13 -26q6 -18 6 -26v0q11 20 18 54q0 4 2 9h-1q0 2 1 6v0l1 7q-1 4 -1 6l1 4q-1 4 -1 5l1 5q-1 6 -1 7v1q0 2 -1 5q0 1 1 1q-3 36 -36 97l1 1h3q15 0 15 -1v0q2 0 13 -2v0
q-10 28 -37 63q-35 38 -55 48q-19 12 -39 18v0q21 12 36 13q2 0 12 2v-1q1 0 8 1h12h2q-25 28 -49 37q-18 7 -32 11l-1 -1l-3 1h-1q-11 1 -11 2l-3 -1h-16q-1 0 -1 1q-1 -1 -8 -2v1q-4 -1 -11 -2v1q-43 -8 -73 -31h-2q2 31 19 71q7 12 7 14h-1q-32 -11 -60 -39
q-32 -35 -32 -71zM343 845q0 -1 1 -1l-1 -4v0q0 -4 -1 -4q0 -1 1 -1q-1 -6 -2 -6l1 -1q-1 -6 -1 -7v-1v-10v-10v-10v-1q0 -2 1 -7h-1q1 -2 2 -11v0q5 -31 16 -60q17 -44 55 -84q5 -5 15 -13v0q-1 7 -1 16v16q0 39 12 75v1v0q-17 10 -17 28q0 11 15 47v1q-21 33 -24 62l-1 2
h1q-2 2 -3 16h1q-2 3 -2 14v2q1 13 2 13l-1 1q0 15 10 44q7 13 7 18v2q0 9 -12 12q-7 -1 -21 -18q-32 -46 -39 -74q-6 -15 -13 -47zM994 970q0 -3 10 -26q7 -29 7 -38h-1q1 -5 1 -14q0 -12 -1 -12l1 -1q0 -28 -23 -77q6 -12 6 -16v-6q0 -13 -14 -25v-1q17 -47 17 -65h-1
q1 -2 2 -22q0 -24 -6 -53h1q28 24 42 46q30 42 43 102l-1 1l1 3v1q0 4 1 4h-1q1 4 2 4l-1 1q0 5 1 5v1q0 6 1 7q0 1 -1 1q1 7 1 10v10q0 4 -1 9l1 2q-1 1 -1 7v1q0 1 -1 6h1q-2 3 -2 5h1q-1 4 -2 9h1q-9 39 -20 64q-11 27 -43 67q-7 4 -10 4q-8 -2 -11 -8v-6zM612 751
q25 -5 25 -25v0q0 -18 -20 -25q-4 -1 -6 -1q-16 0 -24 20v7q0 17 21 23q3 1 4 1zM801 751q19 0 25 -21v-7q0 -14 -19 -22q-1 0 -7 -1q-14 0 -22 18q-1 2 -1 5v6q0 14 19 21q4 0 5 1zM696 647v0h3h15h3h1q7 0 7 -1v1q33 -3 62 -22q39 -31 39 -63v-6q0 -27 -26 -54
q-27 -24 -67 -31v1q-2 -2 -15 -3q-1 0 -1 1l-3 -1h-17v1l-1 -1q-6 0 -6 1h-1q-30 2 -68 24q-34 29 -34 66q0 41 48 71q32 15 43 15v-1q2 1 18 2zM617 559q0 -21 28 -42q18 -11 56 -16l4 1h4q2 0 3 -1q1 1 8 1v0q2 0 13 2v0q20 4 36 14q25 19 25 41q0 28 -42 49q-13 6 -35 9
l-1 -1q-7 1 -10 1q-8 -1 -9 -1l-1 1q-33 -5 -48 -15q-31 -21 -31 -43zM651 571l4 -1l1 1q10 -4 10 -11q-2 -12 -10 -12h-3q-12 3 -12 11q0 7 10 12zM761 571q8 0 11 -10v-1q-2 -12 -10 -12h-3q-9 2 -9 9v4q0 8 11 10z" />
    <glyph glyph-name="semicolon" unicode=";" 
d="M155 712q1 -228 164 -390q165 -163 397 -163q233 0 397 163q164 162 164 390q0 229 -164 391q-164 163 -397 163q-232 0 -397 -163q-163 -162 -164 -391zM718 1061h1q18 0 28 -21q2 -10 2 -12q0 -10 -12 -28h1q10 3 24 6v-1q3 1 4 1v0q4 1 6 1v-1q1 1 7 2v-1q3 1 15 1
q14 0 14 -1l1 1q5 -1 5 -2q1 0 1 1q35 -3 76 -29q43 -32 43 -52q0 -17 -16 -27q0 -1 19 -19q1 -2 21 -24q11 -19 13 -20q5 7 10 32q1 6 2 7q0 1 -1 1l1 7v0v5v7v6v1q0 1 -1 5q0 1 1 1q0 11 -18 57q-1 5 -1 9q0 16 21 32q13 5 18 5h1h3h2h1q12 0 35 -22q25 -35 38 -62
q14 -31 22 -69q0 -1 3 -17v0q0 -1 1 -7h-1q1 0 2 -10q0 -1 -1 -1l1 -3v-14q0 -2 -1 -6l1 -1q-1 -9 -2 -10l1 -1q0 -6 -1 -6v0q-1 -16 -2 -16v-1q-1 -11 -2 -11v-2q-6 -35 -22 -67q-7 -23 -47 -71q-37 -36 -59 -49q0 -7 -16 -18v-4q0 -26 -15 -68q-16 -34 -22 -38
q-9 -6 -18 -7v1q-6 0 -7 -9q-22 -61 -68 -94q-23 -14 -33 -14h-6q-29 -43 -81 -61q-24 -6 -27 -6h-2q-14 0 -26 20q-2 4 -3 23q-2 7 -15 20h-6q-25 3 -55 24q-27 24 -37 43q-7 15 -12 28q-23 0 -54 75q-5 19 -11 42q-5 0 -14 13q-6 12 -11 38q-42 23 -85 87q-29 55 -29 70
q-4 6 -10 52h1q-1 3 -1 7v0q0 1 -1 9q0 1 1 1l-1 5v13q0 3 1 8q-1 1 -1 2l1 7v2q0 4 1 4q0 1 -1 1q6 29 13 53q19 55 55 99q20 18 31 18h1h2h2h2q4 0 4 -1v1q11 -1 26 -16q8 -12 8 -23q0 -8 -8 -28q-5 -13 -9 -30v-1q0 -4 -1 -4h1l-2 -6q0 -1 1 -1l-1 -4v-12l1 -4l-1 -1
l2 -4l-1 -2q1 -3 1 -4v0q5 -29 14 -44q1 0 17 21q14 17 28 27q0 1 -14 5q-18 11 -18 29v2q0 20 34 34q28 13 52 14v0q4 1 14 1q11 0 11 -1h2q10 0 10 -2l1 1q3 0 3 -1h1h3q9 28 34 54q36 35 77 48q4 2 9 2zM623 918h-1l-27 9q-1 0 -1 -1q-7 1 -7 2l-2 -1q-4 1 -4 2
q-1 0 -1 -1l-8 1h-9l-7 -1v1q-1 -1 -10 -2v0q-25 -6 -38 -13q-8 -5 -8 -6q19 -1 47 -25l9 -11v-1q-2 -1 -14 -6q-19 -8 -46 -36q-30 -36 -40 -78h1q34 23 43 23h1v0q-32 -44 -41 -101l1 -1l-1 -4v-1l-1 -6q0 -1 1 -1l-1 -9v-5v-6v-7v-4q0 -6 1 -8l-1 -1q1 -4 1 -6v-1l1 -4
l-1 -1q2 -3 2 -4h-1q5 -26 12 -51h2q6 24 16 42q3 4 4 4q-1 -8 -1 -9v0q-1 -5 -2 -17h1l-1 -4v-14q0 -2 1 -6l-1 -1q1 -6 2 -7q0 -1 -1 -1q3 -41 26 -84q5 -9 13 -19q0 19 11 48v0l1 -2v-4q0 -26 15 -69q20 -47 59 -63l14 -5q-1 7 -1 10v2q0 21 5 36h1q0 -39 31 -67
q16 -20 16 -43h3v0q22 5 40 15q34 25 51 57q10 21 18 46v0q6 -9 6 -26v-1q0 -12 -4 -25q48 22 73 90q15 47 15 77h-1l1 4v11h1q15 -57 15 -66h1q11 19 18 42q9 39 9 54q0 1 -1 1q2 7 2 19q0 11 -2 19l1 1l-3 31q7 -9 13 -26q6 -18 6 -26v0q11 20 18 54q0 4 2 9h-1q0 2 1 6v0
l1 7q-1 4 -1 6l1 4q-1 4 -1 5l1 5q-1 6 -1 7v1q0 2 -1 5q0 1 1 1q-3 36 -36 97l1 1h3q15 0 15 -1v0q2 0 13 -2v0q-10 28 -37 63q-35 38 -55 48q-19 12 -39 18v0q21 12 36 13q2 0 12 2v-1q1 0 8 1h12h2q-25 28 -49 37q-18 7 -32 11l-1 -1l-3 1h-1q-11 1 -11 2l-3 -1h-16
q-1 0 -1 1q-1 -1 -8 -2v1q-4 -1 -11 -2v1q-43 -8 -73 -31h-2q2 31 19 71q7 12 7 14h-1q-32 -11 -60 -39q-32 -35 -32 -71zM343 845q0 -1 1 -1l-1 -4v0q0 -4 -1 -4q0 -1 1 -1q-1 -6 -2 -6l1 -1q-1 -6 -1 -7v-1v-10v-10v-10v-1q0 -2 1 -7h-1q1 -2 2 -11v0q5 -31 16 -60
q17 -44 55 -84q5 -5 15 -13v0q-1 7 -1 16v16q0 39 12 75v1v0q-17 10 -17 28q0 11 15 47v1q-21 33 -24 62l-1 2h1q-2 2 -3 16h1q-2 3 -2 14v2q1 13 2 13l-1 1q0 15 10 44q7 13 7 18v2q0 9 -12 12q-7 -1 -21 -18q-32 -46 -39 -74q-6 -15 -13 -47zM994 970q0 -3 10 -26
q7 -29 7 -38h-1q1 -5 1 -14q0 -12 -1 -12l1 -1q0 -28 -23 -77q6 -12 6 -16v-6q0 -13 -14 -25v-1q17 -47 17 -65h-1q1 -2 2 -22q0 -24 -6 -53h1q28 24 42 46q30 42 43 102l-1 1l1 3v1q0 4 1 4h-1q1 4 2 4l-1 1q0 5 1 5v1q0 6 1 7q0 1 -1 1q1 7 1 10v10q0 4 -1 9l1 2
q-1 1 -1 7v1q0 1 -1 6h1q-2 3 -2 5h1q-1 4 -2 9h1q-9 39 -20 64q-11 27 -43 67q-7 4 -10 4q-8 -2 -11 -8v-6zM612 751q25 -5 25 -25v0q0 -18 -20 -25q-4 -1 -6 -1q-16 0 -24 20v7q0 17 21 23q3 1 4 1zM801 751q19 0 25 -21v-7q0 -14 -19 -22q-1 0 -7 -1q-14 0 -22 18
q-1 2 -1 5v6q0 14 19 21q4 0 5 1zM696 647v0h3h15h3h1q7 0 7 -1v1q33 -3 62 -22q39 -31 39 -63v-6q0 -27 -26 -54q-27 -24 -67 -31v1q-2 -2 -15 -3q-1 0 -1 1l-3 -1h-17v1l-1 -1q-6 0 -6 1h-1q-30 2 -68 24q-34 29 -34 66q0 41 48 71q32 15 43 15v-1q2 1 18 2zM617 559
q0 -21 28 -42q18 -11 56 -16l4 1h4q2 0 3 -1q1 1 8 1v0q2 0 13 2v0q20 4 36 14q25 19 25 41q0 28 -42 49q-13 6 -35 9l-1 -1q-7 1 -10 1q-8 -1 -9 -1l-1 1q-33 -5 -48 -15q-31 -21 -31 -43zM651 571l4 -1l1 1q10 -4 10 -11q-2 -12 -10 -12h-3q-12 3 -12 11q0 7 10 12z
M761 571q8 0 11 -10v-1q-2 -12 -10 -12h-3q-9 2 -9 9v4q0 8 11 10z" />
    <glyph glyph-name="less" unicode="&#x3c;" 
d="M155 712q1 -228 164 -390q165 -163 397 -163q233 0 397 163q164 162 164 390q0 229 -164 391q-164 163 -397 163q-232 0 -397 -163q-163 -162 -164 -391zM215 216q-208 205 -208 496q0 292 208 497t501 205q294 0 501 -205q208 -205 208 -497q0 -291 -208 -496
q-207 -205 -501 -205q-293 0 -501 205zM728 920q0 -42 20 -88q123 61 123 146v2q-6 61 -41 61q-8 0 -8 2q-49 0 -86 -72q-8 -34 -8 -51zM329 910q0 -72 100 -122q40 -17 88 -17h12q78 0 172 43v4q-17 48 -86 115q-77 61 -155 61h-12q-88 0 -117 -67q-2 -15 -2 -17zM846 728
l2 -10v-6q0 -110 104 -211q18 -10 29 -10h12q41 0 55 66q4 24 4 38v7q0 109 -106 175q-29 17 -47 17q-53 -10 -53 -66zM658 647v-25q0 -117 108 -208q43 -25 84 -25q52 0 106 39v2q-69 16 -136 139q-37 83 -37 153q0 40 14 70h-2q-85 -25 -121 -84q-16 -36 -16 -61zM597 626
q-64 -113 -80 -165v-3q0 -20 70 -36q18 -11 114 -29q-102 110 -102 233h-2z" />
    <glyph glyph-name="equal" unicode="=" 
d="M319 313q-166 164 -166 396q0 233 166 397q166 163 400 163q235 0 400 -163q166 -164 166 -397q0 -232 -166 -396q-165 -164 -400 -164q-234 0 -400 164zM728 920q0 -42 20 -88q123 61 123 146v2q-6 61 -41 61q-8 0 -8 2q-49 0 -86 -72q-8 -34 -8 -51zM329 910
q0 -72 100 -122q40 -17 88 -17h12q78 0 172 43v4q-17 48 -86 115q-77 61 -155 61h-12q-88 0 -117 -67q-2 -15 -2 -17zM846 728l2 -10v-6q0 -110 104 -211q18 -10 29 -10h12q41 0 55 66q4 24 4 38v7q0 109 -106 175q-29 17 -47 17q-53 -10 -53 -66zM658 647v-25
q0 -117 108 -208q43 -25 84 -25q52 0 106 39v2q-69 16 -136 139q-37 83 -37 153q0 40 14 70h-2q-85 -25 -121 -84q-16 -36 -16 -61zM597 626q-64 -113 -80 -165v-3q0 -20 70 -36q18 -11 114 -29q-102 110 -102 233h-2z" />
  </font>
</defs>
</svg>
