<?xml version="1.0" standalone="no"?>
<!DOCTYPE svg PUBLIC "-//W3C//DTD SVG 20010904//EN"
 "http://www.w3.org/TR/2001/REC-SVG-20010904/DTD/svg10.dtd">
<svg version="1.0" xmlns="http://www.w3.org/2000/svg"
 width="376.000000pt" height="500.000000pt" viewBox="0 0 376.000000 500.000000"
 preserveAspectRatio="xMidYMid meet">
<metadata>
Created by potrace 1.16, written by Peter Selinger 2001-2019
</metadata>
<g transform="translate(0.000000,500.000000) scale(0.100000,-0.100000)"
fill="#000000" stroke="none">
<path d="M1720 4840 c-160 -40 -286 -116 -407 -243 -91 -98 -149 -199 -188
-332 -24 -81 -28 -111 -32 -292 l-6 -203 -403 0 -404 0 0 -1785 0 -1785 1615
0 1615 0 0 1785 0 1785 -374 0 -373 0 -6 198 c-4 151 -10 215 -25 273 -42 160
-117 285 -240 401 -89 83 -180 138 -302 179 -88 30 -106 33 -245 36 -122 2
-164 -1 -225 -17z m341 -296 c187 -56 326 -197 374 -381 10 -40 15 -109 15
-225 l0 -168 -525 0 -525 0 0 173 c0 252 29 339 154 462 73 72 147 116 233
140 69 19 208 18 274 -1z m-971 -1219 l0 -145 155 0 155 0 0 145 0 145 525 0
525 0 0 -145 0 -145 155 0 155 0 0 145 0 145 225 0 225 0 0 -1485 0 -1485
-1315 0 -1315 0 0 1485 0 1485 255 0 255 0 0 -145z"/>
</g>
</svg>
